<svg id="Capa_1" enable-background="new 0 0 512 512" height="512" viewBox="0 0 512 512" width="512" xmlns="http://www.w3.org/2000/svg"><g><path d="m436 0c-38.789 0-75.732 16.714-101.382 45.864l64.248 100.576c31.187-9.961 52.134-38.686 52.134-71.44v-60c0-8.291-6.709-15-15-15z" fill="#ff8596"/><path d="m76 0c-8.291 0-15 6.709-15 15v60c0 32.754 20.947 61.479 52.134 71.44l64.248-100.576c-25.65-29.15-62.593-45.864-101.382-45.864z" fill="#ffa7b3"/><path d="m417.646 185.288h-161.646-161.646c-22.133 27.261-33.354 60.806-33.354 99.712 0 30.747 7.031 61.22 20.889 88.612 10.547 20.815 18.545 42.968 23.774 63.842l15.791 63.179c1.67 6.68 7.661 11.367 14.546 11.367h30c8.291 0 15-6.709 15-15v-60.027c23.097 9.636 48.409 15.027 75 15.027 26.613 0 51.888-5.508 75-15.159v60.159c0 8.291 6.709 15 15 15h30c6.885 0 12.876-4.688 14.546-11.367l13.682-54.727c6.753-26.982 18.003-55.145 29.927-81.819 11.176-24.961 16.845-51.577 16.845-79.087 0-38.906-11.221-72.451-33.354-99.712z" fill="#ffa7b3"/><path d="m331 497c0 8.291 6.709 15 15 15h30c6.885 0 12.876-4.688 14.546-11.367l13.682-54.727c6.753-26.982 18.003-55.145 29.927-81.819 11.176-24.961 16.845-51.577 16.845-79.087 0-38.906-11.221-72.451-33.354-99.712h-161.646v266.712c26.613 0 51.888-5.508 75-15.159z" fill="#ff8596"/><path d="m256 0c-92.93 0-165 104.824-165 195 0 83.276 63.223 135 165 135s165-51.724 165-135c0-90.176-72.07-195-165-195z" fill="#ffc9d0"/><path d="m421 195c0-90.176-72.07-195-165-195v330c101.777 0 165-51.724 165-135z" fill="#ffa7b3"/><ellipse cx="256" cy="210" fill="#ffa7b3" rx="75" ry="60"/><path d="m331 210c0-33.091-33.647-60-75-60v120c41.353 0 75-26.909 75-60z" fill="#ff8596"/></g></svg>