<svg id="Capa_1" enable-background="new 0 0 512 512" height="512" viewBox="0 0 512 512" width="512" xmlns="http://www.w3.org/2000/svg"><g><g><path d="m191.138 137.899v.001c-.054.237-.058.255 0-.001z" fill="#ff641a"/><path d="m509.983 201.092c-6.196-20.288-25.166-33.677-46.436-31.89l-95.735 6.46c-21.987 1.406-42.539-13.726-47.168-35.537l-19.116-88.433c-4.583-21.544-23.884-36.731-45.527-35.484h-.001c-21.643-1.246-40.945 13.94-45.528 35.484-.638 2.846-18.384 81.968-19.334 86.207v-.001c-.057.256-.053.238 0 .001-5.376 21.665-26.47 36.122-48.369 33.895l-92.763-9.609c-21.124-2.211-40.592 10.255-47.506 30.279-6.899 20.054.835 41.895 18.823 53.115l79.316 48.691c18.926 11.807 26.353 36.079 17.271 56.47l-37.383 81.4c-8.613 19.365-2.798 41.792 14.121 54.551 16.963 12.773 40.122 12.144 56.323-1.509l79.415-56.527c8.366-7.04 17.131-10.067 25.613-9.755 8.684.32 17.072 4.141 24.435 10.766l68.35 54.523c15.8 14.211 38.873 15.553 56.235 3.442 17.344-12.158 23.921-34.38 15.981-54.038l-34.497-78.239c-8.364-20.684-.103-44.692 19.219-55.854l83.621-45.981c18.37-10.605 26.851-32.168 20.64-52.427z" fill="#ff641a"/><path d="m348.784 484.19c15.8 14.211 38.873 15.553 56.235 3.442 17.344-12.158 23.921-34.38 15.981-54.038l-34.497-78.239c-8.364-20.684-.103-44.692 19.219-55.854l83.621-45.981c18.369-10.605 26.851-32.168 20.64-52.427-6.196-20.288-25.166-33.677-46.436-31.89l-95.735 6.46c-21.987 1.406-42.539-13.726-47.168-35.537l-19.116-88.433c-4.583-21.544-23.884-36.731-45.527-35.484h-.001v402.692c8.684.32 17.072 4.141 24.435 10.766z" fill="#f03800"/></g><path d="m175.874 379.452c-6.665-4.922-8.086-14.312-3.164-20.977l17.798-24.126c4.922-6.65 14.326-8.071 20.977-3.164 6.665 4.922 8.086 14.312 3.164 20.977l-17.798 24.126c-4.899 6.629-14.279 8.105-20.977 3.164z" fill="#ffd396"/><path d="m328.276 250.794c-2.212-7.983 2.476-16.245 10.459-18.457l28.916-8.013c7.881-2.197 16.23 2.461 18.457 10.459 2.212 7.983-2.476 16.245-10.459 18.457l-28.916 8.013c-7.995 2.197-16.241-2.477-18.457-10.459z" fill="#ffb64c"/><path d="m309.863 379.1-16.582-24.99c-4.585-6.899-2.695-16.216 4.204-20.786 6.885-4.644 16.201-2.681 20.786 4.204l16.582 24.99c4.585 6.899 2.695 16.216-4.204 20.786-6.849 4.567-16.186 2.731-20.786-4.204z" fill="#ffb64c"/><path d="m165.576 258.631-28.667-8.862c-7.925-2.446-12.349-10.84-9.902-18.75 2.446-7.925 10.869-12.349 18.75-9.902l28.667 8.862c7.925 2.446 12.349 10.84 9.902 18.75-2.464 7.971-10.894 12.338-18.75 9.902z" fill="#ffd396"/><path d="m256.001 135.863c-8.291 0-15 6.709-15 15v30c0 8.291 6.709 15 15 15s15-6.709 15-15v-30c0-8.291-6.709-15-15-15z" fill="#ffd396"/><path d="m271.001 180.863v-30c0-8.291-6.709-15-15-15v60c8.291 0 15-6.709 15-15z" fill="#ffb64c"/><circle cx="256.001" cy="270.863" fill="#ffd396" r="45"/><path d="m301.001 270.863c0-24.814-20.186-45-45-45v90c24.814 0 45-20.186 45-45z" fill="#ffb64c"/></g></svg>