<svg id="Capa_1" enable-background="new 0 0 512 512" height="512" viewBox="0 0 512 512" width="512" xmlns="http://www.w3.org/2000/svg"><g><path d="m106 452c-8.291 0-15-6.709-15-15s6.709-15 15-15c24.814 0 45-20.186 45-45v-166c0-8.291 6.709-15 15-15s15 6.709 15 15v166c0 41.353-33.647 75-75 75z" fill="#6aa9ff"/><path d="m166 512c-8.291 0-15-6.709-15-15s6.709-15 15-15c24.814 0 45-20.186 45-45v-226c0-8.291 6.709-15 15-15s15 6.709 15 15v226c0 41.353-33.647 75-75 75z" fill="#6aa9ff"/><path d="m406 452c-41.353 0-75-33.647-75-75v-166c0-8.291 6.709-15 15-15s15 6.709 15 15v166c0 24.814 20.186 45 45 45 8.291 0 15 6.709 15 15s-6.709 15-15 15z" fill="#4895ff"/><path d="m346 512c-41.353 0-75-33.647-75-75v-226c0-8.291 6.709-15 15-15s15 6.709 15 15v226c0 24.814 20.186 45 45 45 8.291 0 15 6.709 15 15s-6.709 15-15 15z" fill="#4895ff"/><path d="m256 0c-90.981 0-165 75.019-165 166v16.699c0 21.138 12.861 40.254 32.769 48.691 18.267 7.734 38.291 4.277 52.837-9.785 10.693-10.693 28.096-10.693 38.789 0 11.191 11.191 25.898 16.787 40.605 16.787s29.414-5.596 40.605-16.787c10.693-10.664 28.081-10.708 39.463.674 13.843 13.403 33.838 16.86 52.163 9.111 19.908-8.437 32.769-27.553 32.769-48.691v-16.699c0-90.981-74.019-166-165-166z" fill="#7ed8f6"/><path d="m336.068 222.279c13.843 13.403 33.838 16.86 52.163 9.111 19.908-8.437 32.769-27.553 32.769-48.691v-16.699c0-90.981-74.019-166-165-166v238.393c14.707 0 29.414-5.596 40.605-16.787 10.694-10.665 28.082-10.709 39.463.673z" fill="#6aa9ff"/></g></svg>