<svg id="Capa_1" enable-background="new 0 0 512 512" height="512" viewBox="0 0 512 512" width="512" xmlns="http://www.w3.org/2000/svg"><g><path d="m121 331h90v166c0 8.291-6.709 15-15 15h-60c-8.291 0-15-6.709-15-15 0-19.336 7.427-38.632 20.405-52.401-13.095-17.549-20.405-39.112-20.405-61.202z" fill="#873f2e"/><path d="m391 331h-90v166c0 8.291 6.709 15 15 15h60c8.291 0 15-6.709 15-15 0-19.336-7.427-38.632-20.405-52.401 13.095-17.549 20.405-39.112 20.405-61.202z" fill="#752f21"/><path d="m379.86 60h-123.86-123.354c-43.345 46.844-71.646 115.972-71.646 181 0 78.014 36.136 120.449 79.252 138.777 33.308 26.637 73.368 41.223 115.748 41.223 42.081 0 82.687-14.727 115.997-41.255 14.377-6.085 27.49-14.313 38.383-25.073 26.953-26.616 40.62-64.863 40.62-113.672 0-65.394-28.076-134.343-71.14-181z" fill="#bc5f19"/><path d="m410.38 354.672c26.953-26.616 40.62-64.863 40.62-113.672 0-65.394-28.076-134.343-71.14-181h-123.86v361c42.081 0 82.687-14.727 115.997-41.255 14.378-6.085 27.49-14.314 38.383-25.073z" fill="#873f2e"/><path d="m136 0c-24.814 0-45 20.186-45 45s20.186 45 45 45h30l35.42-51.694c-13.272-23.628-38.335-38.306-65.42-38.306z" fill="#e68a44"/><path d="m376 0c-27.085 0-52.148 14.678-65.42 38.306l35.42 51.694h30c24.814 0 45-20.186 45-45s-20.186-45-45-45z" fill="#bc5f19"/><g><path d="m136 30c-8.276 0-15 6.724-15 15s6.724 15 15 15h42.437c-.996-2.827-2.285-5.566-3.867-8.188-8.233-13.653-22.647-21.812-38.57-21.812z" fill="#fff5f5"/></g><g><path d="m333.681 60h42.393c8.262 0 14.985-6.724 14.985-14.985s-6.724-14.985-14.985-14.985c-14.971 0-28.931 7.427-37.31 19.863-2.154 3.178-3.838 6.577-5.083 10.107z" fill="#efe2dd"/></g><path d="m256 256h-75v30c0 24.814 20.186 45 45 45h30 30c24.814 0 45-20.186 45-45v-30z" fill="#e68a44"/><path d="m331 286v-30h-75v75h30c24.814 0 45-20.186 45-45z" fill="#bc5f19"/><path d="m256 0c-57.891 0-105 47.109-105 105v121c0 24.814 20.186 45 45 45h60 60c24.814 0 45-20.186 45-45v-121c0-57.891-47.109-105-105-105z" fill="#eeaf80"/><path d="m361 226v-121c0-57.891-47.109-105-105-105v271h60c24.814 0 45-20.186 45-45z" fill="#e68a44"/><path d="m297.631 148.887c-9.014-21.31-12.539-34.816-27.407-78.633-2.036-6.123-8.13-9.185-14.224-9.185s-12.188 3.062-14.224 9.185c-15.009 44.242-18.4 57.354-27.407 78.633-2.241 5.244-3.369 11.664-3.369 17.113 0 24.814 20.186 45 45 45s45-20.186 45-45c0-5.449-1.128-11.869-3.369-17.113z" fill="#e68a44"/><path d="m301 166c0-5.449-1.128-11.869-3.369-17.113-9.014-21.31-12.539-34.816-27.407-78.633-2.036-6.123-8.13-9.185-14.224-9.185v149.931c24.814 0 45-20.186 45-45z" fill="#bc5f19"/></g></svg>