<svg id="Capa_1" enable-background="new 0 0 512 512" height="512" viewBox="0 0 512 512" width="512" xmlns="http://www.w3.org/2000/svg"><g><path d="m432.455 460.613c13.989-21.416 18.545-68.426 18.545-80.98 0-43.36-35.273-78.633-78.633-78.633-11.646 0-23.188 2.871-33.398 8.276h-82.969-82.969c-10.21-5.405-21.753-8.276-33.398-8.276-43.36 0-78.633 35.273-78.633 78.633 0 12.554 4.556 59.564 18.545 80.98-11.235 8.189-18.545 21.446-18.545 36.387 0 8.291 6.709 15 15 15h75l30-30h75 75l30 30h75c8.291 0 15-6.709 15-15 0-14.941-7.31-28.198-18.545-36.387z" fill="#fff5f5"/><path d="m361 512h75c8.291 0 15-6.709 15-15 0-14.941-7.31-28.198-18.545-36.387 13.989-21.416 18.545-68.426 18.545-80.98 0-43.36-35.273-78.633-78.633-78.633-11.646 0-23.188 2.871-33.398 8.276h-82.969v172.724h75z" fill="#efe2dd"/><path d="m256 211h-105v301h60l15-30 15 30h15 15l15-30 15 30h60v-301z" fill="#efe2dd"/><path d="m286 482 15 30h60v-301h-105v301h15z" fill="#e1d3ce"/><path d="m425.453 0h-79.453c-60.842 0-58.768 62.477-60 65.479-10.369-3.691-20.187-5.537-30-5.537-9.816 0-19.627 1.846-29.985 5.537h-.015c0-36.109-29.37-65.479-65.479-65.479h-73.974c-22.354 0-40.547 18.193-40.547 40.547 0 32.52 22.661 39.346 41.66 39.346 11.133 0 24.639-2.329 39.038-6.724 19.263-5.801 39.302 8.789 39.302 28.14v11.265c-18.779 25.562-30 57.367-30 83.427 0 37.822 23.291 61.611 69.141 70.664 13.004 2.6 25.677-1.176 35.859-8.624l15-32.041 15 32.267c10.248 7.46 22.989 10.994 35.771 8.412 45.938-9.068 69.229-32.857 69.229-70.679 0-26.06-11.221-57.865-30-83.412v-11.338c0-19.365 18.955-34.351 38.027-28.872 35.449 10.356 57.671 9.946 70.474-.894 7.632-6.489 11.499-16.889 11.499-30.937 0-22.354-18.193-40.547-40.547-40.547z" fill="#fff5f5"/><path d="m306.771 266.679c45.938-9.068 69.229-32.857 69.229-70.679 0-26.06-11.221-57.865-30-83.412v-11.338c0-19.365 18.955-34.351 38.027-28.872 35.449 10.356 57.671 9.946 70.474-.894 7.632-6.489 11.499-16.889 11.499-30.937 0-22.354-18.193-40.547-40.547-40.547h-79.453c-60.842 0-58.768 62.477-60 65.479-10.369-3.691-20.187-5.537-30-5.537v166.058l15 32.267c10.248 7.46 22.989 10.993 35.771 8.412z" fill="#efe2dd"/><path d="m226 361c-8.291 0-15 6.709-15 15v136h30v-136c0-8.291-6.709-15-15-15z" fill="#fff5f5"/><path d="m286 361c-8.291 0-15 6.709-15 15v136h30v-136c0-8.291-6.709-15-15-15z" fill="#efe2dd"/><g><path d="m296.605 170.395c-5.859-5.859-15.352-5.859-21.211 0l-19.394 19.394-19.395-19.395c-5.859-5.859-15.352-5.859-21.211 0s-5.859 15.352 0 21.211l25.606 25.606v40.829c11.418-8.355 12.795-13.947 15-17.04 2.111 3.001 3.483 8.884 15 17.267v-41.056l25.605-25.605c5.86-5.86 5.86-15.352 0-21.211z" fill="#ffb64c"/><path d="m271 258.267v-41.056l25.605-25.605c5.859-5.859 5.859-15.352 0-21.211s-15.352-5.859-21.211 0l-19.394 19.394v51.211c2.111 3.001 3.483 8.884 15 17.267z" fill="#ff9100"/></g></g></svg>