<svg id="Capa_1" enable-background="new 0 0 512 512" height="512" viewBox="0 0 512 512" width="512" xmlns="http://www.w3.org/2000/svg"><g><path d="m333.631 240h-77.631-77.313c-45.677 34.88-87.687 101.589-87.687 182 0 17.651 2.957 38.822 8.721 60h156.279 156.286c5.779-21.557 8.714-43.066 8.714-60 0-76.631-39.271-145.335-87.369-182z" fill="#e68a44"/><path d="m421 422c0-76.631-39.271-145.335-87.369-182h-77.631v242h156.286c5.779-21.557 8.714-43.066 8.714-60z" fill="#bc5f19"/><path d="m406 452h-150-150c-23.408 0-45 19.246-45 45 0 8.284 6.716 15 15 15h96.476l23.524-30h60 60l23.524 30h96.476c8.284 0 15-6.716 15-15 0-25.697-21.55-45-45-45z" fill="#eeaf80"/><path d="m339.524 512h96.476c8.284 0 15-6.716 15-15 0-25.697-21.55-45-45-45h-150v30h60z" fill="#e68a44"/><path d="m256 270c-57.99 0-105 69.158-105 152 0 31.068 6.475 61.646 21.476 90h83.524 83.524c15-28.35 21.476-58.927 21.476-90 0-82.842-47.01-152-105-152z" fill="#efe2dd"/><path d="m361 422c0-82.842-47.01-152-105-152v242h83.524c15-28.35 21.476-58.927 21.476-90z" fill="#e1d3ce"/><circle cx="361" cy="90" fill="#bc5f19" r="90"/><circle cx="151" cy="90" fill="#e68a44" r="90"/><circle cx="361" cy="90" fill="#38211a" r="60"/><circle cx="151" cy="90" fill="#5b362a" r="60"/><path d="m256 30c-72.7 0-135 82.485-135 150 0 66.167 60.557 120 135 120s135-53.833 135-120c0-67.515-62.3-150-135-150z" fill="#eeaf80"/><path d="m391 180c0-67.515-62.3-150-135-150v270c74.443 0 135-53.833 135-120z" fill="#e68a44"/><ellipse cx="256" cy="180" fill="#704c55" rx="30" ry="45"/><path d="m286 180c0-24.853-13.431-45-30-45v90c16.569 0 30-20.147 30-45z" fill="#5b362a"/></g></svg>