<svg id="Capa_1" enable-background="new 0 0 512 512" height="512" viewBox="0 0 512 512" width="512" xmlns="http://www.w3.org/2000/svg"><g><path d="m497 210h-76v-45c0-91.128-73.872-165-165-165s-165 73.872-165 165v45h-76c-8.291 0-15 6.709-15 15 0 63.633 57.895 73.271 91 74.736v182.264h75l30 30h60 60l30-30h75v-182.264c33.105-1.465 91-11.104 91-74.736 0-8.291-6.709-15-15-15z" fill="#704c55"/><path d="m346 482h75v-182.264c33.105-1.465 91-11.104 91-74.736 0-8.291-6.709-15-15-15h-76v-45c0-91.128-73.872-165-165-165v512h60z" fill="#5b362a"/><path d="m301.469 91.655c-15.498-3.354-31.04-1.641-45.469 4.819-14.443-6.445-30.015-8.13-45.454-4.819-34.512 7.383-59.546 40.02-59.546 77.622v312.723l45 30h60 60l45-30v-312.723c0-37.602-25.034-70.239-59.531-77.622z" fill="#fff5f5"/><path d="m361 482v-312.723c0-37.603-25.034-70.239-59.531-77.622-15.498-3.354-31.04-1.641-45.469 4.819v415.526h60z" fill="#efe2dd"/><path d="m451 497c0 8.399-6.599 15-15 15h-120c-8.401 0-15-6.601-15-15 0-41.7 33.3-75 75-75s75 33.3 75 75z" fill="#ffb64c"/><path d="m451 497c0 8.399-6.599 15-15 15h-60v-90c41.7 0 75 33.3 75 75z" fill="#ff9100"/><path d="m136 422c-41.7 0-75 33.3-75 75 0 8.399 6.599 15 15 15h60 60c8.401 0 15-6.601 15-15 0-41.7-33.3-75-75-75z" fill="#ffb64c"/><path d="m211 497c0-41.7-33.3-75-75-75v90h60c8.401 0 15-6.601 15-15z" fill="#ff9100"/><path d="m296.605 184.395c-5.859-5.859-15.352-5.859-21.211 0l-19.394 19.394-19.395-19.395c-5.859-5.859-15.352-5.859-21.211 0s-5.859 15.352 0 21.211l30 30c2.93 2.93 6.768 4.395 10.605 4.395s7.676-1.465 10.605-4.395l30-30c5.861-5.859 5.861-15.351.001-21.21z" fill="#ffd396"/><path d="m296.605 205.605c5.859-5.859 5.859-15.352 0-21.211s-15.352-5.859-21.211 0l-19.394 19.395v36.211c3.838 0 7.676-1.465 10.605-4.395z" fill="#ffb64c"/></g></svg>