<svg id="Capa_1" enable-background="new 0 0 512 512" height="512" viewBox="0 0 512 512" width="512" xmlns="http://www.w3.org/2000/svg"><g><path d="m481 225c0-65.889-37.925-126.841-101.455-163.037h-123.545-123.545c-63.53 36.196-101.455 97.148-101.455 163.037 0 84.622 52.722 123.501 91.494 161.997l15.674 61.425c-11.08 13.339-17.109 30.826-17.168 48.325-.026 8.34 6.658 15.253 15 15.253h75c8.284 0 15-6.716 15-15v-46c0-16.569 13.431-31 30-31s30 14.431 30 31v46c0 8.284 6.716 15 15 15h75c8.342 0 15.026-6.912 15-15.253-.059-17.499-6.088-34.986-17.168-48.325l15.674-61.425c36.745-36.484 91.494-75.049 91.494-161.997z" fill="#5b362a"/><path d="m286 451v46c0 8.284 6.716 15 15 15h75c8.342 0 15.026-6.912 15-15.253-.059-17.499-6.088-34.986-17.168-48.325l15.674-61.425c36.745-36.484 91.494-75.049 91.494-161.997 0-65.889-37.925-126.841-101.455-163.037h-123.545v358.037c16.569 0 30 14.431 30 31z" fill="#38211a"/><path d="m136 0c-24.814 0-45 20.186-45 45s20.186 45 45 45h30l35.42-51.694c-13.272-23.628-38.335-38.306-65.42-38.306z" fill="#704c55"/><path d="m376 0c-27.085 0-52.148 14.678-65.42 38.306l35.42 51.694h30c24.814 0 45-20.186 45-45s-20.186-45-45-45z" fill="#5b362a"/><g><path d="m136 30c-8.276 0-15 6.724-15 15s6.724 15 15 15h42.437c-.996-2.827-2.285-5.566-3.867-8.188-8.233-13.653-22.647-21.812-38.57-21.812z" fill="#ffd396"/></g><g><path d="m333.681 60h42.393c8.262 0 14.985-6.724 14.985-14.985s-6.724-14.985-14.985-14.985c-14.971 0-28.931 7.427-37.31 19.863-2.154 3.178-3.838 6.577-5.083 10.107z" fill="#ffb64c"/></g><path d="m256 285h-75v30c0 24.814 20.186 45 45 45h30 30c24.814 0 45-20.186 45-45v-30z" fill="#704c55"/><path d="m331 315v-30h-75v75h30c24.814 0 45-20.186 45-45z" fill="#5b362a"/><path d="m256 0c-57.99 0-105 47.01-105 105v135h105 105v-135c0-57.99-47.01-105-105-105z" fill="#704c55"/><path d="m361 105c0-57.99-47.01-105-105-105v240h105z" fill="#5b362a"/><path d="m316 150c-24.417 0-44.127 9.721-60 29.718-.125.157-.271.256-.396.414-14.721-19.995-34.775-30.132-59.604-30.132-41.353 0-75 33.647-75 75s33.647 75 75 75h60 60c41.353 0 75-33.647 75-75s-33.647-75-75-75z" fill="#80666d"/><path d="m391 225c0-41.353-33.647-75-75-75-24.417 0-44.127 9.721-60 29.718v120.282h60c41.353 0 75-33.647 75-75z" fill="#704c55"/><circle cx="196" cy="225" fill="#5b362a" r="15"/><circle cx="316" cy="225" fill="#38211a" r="15"/></g></svg>