<svg id="Capa_1" enable-background="new 0 0 511.988 511.988" height="512" viewBox="0 0 511.988 511.988" width="512" xmlns="http://www.w3.org/2000/svg"><g><path d="m360.994 454.552v-70.283c36.643-30.264 60-78.044 60-129.28 0-91.128-73.874-165-165-165s-165 73.872-165 165c0 51.237 23.357 99.017 60 129.28v70.283c-17.461 6.196-30 22.881-30 42.437 0 8.291 6.709 15 15 15h60c8.291 0 15-6.709 15-15v-81.372c14.323 4.056 29.377 6.372 45 6.372s30.677-2.316 45-6.372v81.372c0 8.291 6.709 15 15 15h60c8.291 0 15-6.709 15-15 0-19.557-12.539-36.241-30-42.437z" fill="#5b362a"/><path d="m300.994 496.988c0 8.291 6.709 15 15 15h60c8.291 0 15-6.709 15-15 0-19.556-12.539-36.24-30-42.437v-70.283c36.643-30.264 60-78.044 60-129.28 0-91.128-73.874-165-165-165v332c15.623 0 30.677-2.316 45-6.372z" fill="#38211a"/><path d="m470.828.794c-6.123-2.051-12.803-.044-16.729 5.054-41.836 54.375-56.118 54.243-82.778 54.141h-40.327v60l16.406 30 19.599-30c66.05 0 113.994-44.165 113.994-105 .001-6.417-4.086-12.13-10.165-14.195z" fill="#ffb64c"/><path d="m140.667 59.988c-26.66.103-40.942.234-82.778-54.141-3.926-5.097-10.606-7.104-16.729-5.053-6.079 2.065-10.166 7.778-10.166 14.194 0 60.835 47.944 105 113.994 105l17.725 30 18.281-30v-60z" fill="#ffd396"/><path d="m405.994 179.988h-105v-60h75c24.853 0 45 20.147 45 45 0 8.284-6.716 15-15 15z" fill="#704c55"/><path d="m210.994 179.988h-105c-8.284 0-15-6.716-15-15 0-24.853 20.147-45 45-45h75z" fill="#80666d"/><path d="m345.628 73.64c.498-9.126-3.867-18.208-11.367-23.701-17.578-12.861-39.126-19.951-60.688-19.951h-17.578-17.578c-21.563 0-43.11 7.09-60.688 19.951-7.5 5.493-11.865 14.575-11.367 23.701 1.904 34.6 11.045 69.185 27.231 101.558 2.08 4.146 7.773 16.258 10.327 21.694-2.86 7.137-7.864 10.752-7.925 42.539-.029 16.992 13.367 30.557 29.927 30.557h30.073 23.335c24.26 0 36.694-14.509 36.665-30.527-.062-31.458-4.911-35.008-7.881-42.627 3.972-8.67-.346-.494 11.045-23.174 15.424-30.835 24.565-65.42 26.469-100.02z" fill="#704c55"/><path d="m315.994 239.461c-.062-31.458-4.911-35.008-7.881-42.627 3.972-8.67-.346-.494 11.045-23.174 15.425-30.835 24.565-65.42 26.47-100.02.498-9.126-3.867-18.208-11.367-23.701-17.578-12.861-39.126-19.951-60.688-19.951h-17.578v240h23.335c24.259 0 36.693-14.509 36.664-30.527z" fill="#5b362a"/></g></svg>