<svg id="Capa_1" enable-background="new 0 0 512 512" height="512" viewBox="0 0 512 512" width="512" xmlns="http://www.w3.org/2000/svg"><g><path d="m166 512h-15c-8.284 0-15-6.716-15-15v-106h60v91c0 16.569-13.431 30-30 30z" fill="#5b362a"/><path d="m346 512h15c8.284 0 15-6.716 15-15v-106h-60v91c0 16.569 13.431 30 30 30z" fill="#38211a"/><path d="m512 226c0-24.448-12.1-47.183-31.714-61.084 1.143-4.57 1.714-9.229 1.714-13.916 0-21.665-11.836-41.382-30.322-51.929-3.296-35.845-32.904-65.453-68.749-68.749-10.547-18.486-30.264-30.322-51.929-30.322-12.729 0-24.99 4.131-35.156 11.602-11.909-7.544-25.877-11.316-39.844-11.316s-27.935 3.772-39.844 11.316c-10.166-7.471-22.427-11.602-35.156-11.602-21.665 0-41.382 11.836-51.929 30.322-35.845 3.296-64.453 32.904-67.749 68.749-18.486 10.547-31.322 30.264-31.322 51.929 0 4.688.571 9.346 1.714 13.916-19.614 13.901-31.714 36.636-31.714 61.084s12.1 47.183 31.714 61.084c-1.143 4.57-1.714 9.229-1.714 13.916 0 21.636 12.792 41.338 31.234 51.885 2.153 30.161 18.311 46.274 32.007 54.595 31.509 19.146 77.373 14.707 100.605 10.269 13.8 20.522 37.076 33.251 62.154 33.251s48.354-12.729 62.153-33.252c23.247 4.395 69.111 8.862 100.605-10.269 13.696-8.32 30.854-24.434 33.007-54.595 18.443-10.546 30.235-30.248 30.235-51.884 0-4.688-.571-9.346-1.714-13.916 19.614-13.901 31.714-36.636 31.714-61.084z" fill="#efe2dd"/><path d="m318.153 417.748c23.247 4.395 69.111 8.862 100.605-10.269 13.696-8.32 30.854-24.434 33.007-54.595 18.443-10.546 30.235-30.248 30.235-51.884 0-4.688-.571-9.346-1.714-13.916 19.614-13.901 31.714-36.636 31.714-61.084s-12.1-47.183-31.714-61.084c1.143-4.57 1.714-9.229 1.714-13.916 0-21.665-11.836-41.382-30.322-51.929-3.296-35.845-32.904-65.453-68.749-68.749-10.547-18.486-30.264-30.322-51.929-30.322-12.729 0-24.99 4.131-35.156 11.602-11.909-7.544-25.877-11.316-39.844-11.316v450.714c25.078 0 48.354-12.729 62.153-33.252z" fill="#e1d3ce"/><path d="m325.478 192.118h-69.478-69.478l-29.414 35.889 12.422 62.109c7.218 36.075 36.152 63.43 71.47 69.56l15-28.676 15 28.676c35.317-6.13 64.252-33.484 71.47-69.56l12.422-62.109z" fill="#704c55"/><path d="m342.47 290.116 12.422-62.109-29.414-35.889h-69.478v138.882l15 28.676c35.317-6.13 64.252-33.484 71.47-69.56z" fill="#5b362a"/><path d="m256 271c-8.291 0-15 6.709-15 15v73.676c4.894.85 9.901 1.324 15 1.324s10.106-.474 15-1.324v-73.676c0-8.291-6.709-15-15-15z" fill="#5b362a"/><path d="m317.084 122.714c-13.887-19.614-36.621-31.714-61.084-31.714s-47.197 12.1-61.084 31.714c-4.57-1.143-9.229-1.714-13.916-1.714-33.091 0-60 26.909-60 60s26.909 60 60 60c12.744 0 25.02-4.116 35.186-11.602 11.909 7.544 25.862 11.316 39.814 11.316s27.905-3.772 39.814-11.316c10.166 7.486 22.442 11.602 35.186 11.602 33.091 0 60-26.909 60-60 0-37.778-37.017-67.441-73.916-58.286z" fill="#fff5f5"/><path d="m331 241c33.091 0 60-26.909 60-60 0-37.778-37.017-67.441-73.916-58.286-13.887-19.614-36.621-31.714-61.084-31.714v149.714c13.953 0 27.905-3.772 39.814-11.316 10.166 7.486 22.442 11.602 35.186 11.602z" fill="#efe2dd"/><path d="m271 286c0-8.291-6.709-15-15-15v90c5.099 0 10.106-.474 15-1.324z" fill="#38211a"/></g></svg>