<svg id="Capa_1" enable-background="new 0 0 512 512" height="512" viewBox="0 0 512 512" width="512" xmlns="http://www.w3.org/2000/svg"><g><path d="m360.997 512c-8.291 0-15-6.709-15-15s6.709-15 15-15c24.814 0 45-20.186 45-45v-53.925c0-46.201 10.928-92.461 31.582-133.784 3.721-7.427 12.7-10.415 20.127-6.709 7.412 3.706 10.415 12.715 6.709 20.127-18.589 37.178-28.418 78.809-28.418 120.366v53.925c0 41.353-33.647 75-75 75z" fill="#38211a"/><path d="m375.997 391c0-43.447-30.981-80.684-73.652-88.521l-26.838 179.521 10.49 30h75c8.291 0 15-6.709 15-15 0-18.545-6.958-36.299-19.16-49.922 12.319-15.718 19.16-36.083 19.16-56.078z" fill="#5b362a"/><path d="m146.487 482-26.837-179.521c-42.671 7.837-73.653 45.074-73.653 88.521 0 19.995 6.841 40.36 19.16 56.078-12.202 13.623-19.16 31.377-19.16 49.922 0 8.291 6.709 15 15 15h75z" fill="#704c55"/><path d="m273.251 211h-62.254-62.267c-32.219 44.119-42.719 89.423-42.713 132.499.009 65.87 20.94 125.823 29.98 168.501h45l30-30 30 30h45c9.836-44.773 30.416-105.196 29.96-170.371-.299-42.508-10.955-87.136-42.706-130.629z" fill="#5b362a"/><path d="m285.997 512c9.836-44.773 30.416-105.196 29.96-170.371-.298-42.508-10.955-87.136-42.706-130.629h-62.254v271l30 30z" fill="#38211a"/><path d="m210.997 361c-16.569 0-30 13.431-30 30v121h30 30v-121c0-16.569-13.431-30-30-30z" fill="#704c55"/><path d="m240.997 391c0-16.569-13.431-30-30-30v151h30z" fill="#5b362a"/><path d="m300.997 0c-36.226 0-66.519 25.811-73.491 60h-16.509-16.509c-6.973-34.189-37.266-60-73.491-60-41.353 0-75 33.647-75 75 0 20.054 7.808 38.892 22.002 53.042 10.796 10.767 24.287 17.856 38.979 20.625 3.267 30.425 18.706 68.28 93.12 146.781 2.827 2.988 6.768 4.688 10.884 4.688.005 0 .009-.004.015-.004 4.111-.004 8.046-1.685 10.869-4.669 73.975-77.974 89.722-116.869 93.223-146.796 34.644-6.606 60.908-37.119 60.908-73.667 0-41.353-33.647-75-75-75z" fill="#704c55"/><path d="m315.089 148.667c34.644-6.606 60.908-37.119 60.908-73.667 0-41.353-33.647-75-75-75-36.226 0-66.519 25.811-73.491 60h-16.509v240.132c4.111-.004 8.046-1.685 10.869-4.669 73.975-77.974 89.722-116.869 93.223-146.796z" fill="#5b362a"/><circle cx="210.997" cy="286" fill="#ffd396" r="30"/><path d="m240.997 286c0-16.538-13.462-30-30-30v60c16.538 0 30-13.462 30-30z" fill="#ffb64c"/></g></svg>