<svg id="Capa_1" enable-background="new 0 0 512 512" height="512" viewBox="0 0 512 512" width="512" xmlns="http://www.w3.org/2000/svg"><g><path d="m181 316h-75l15 196h60 60l15-196z" fill="#fff5f5"/><path d="m256 316h-75v196h60z" fill="#efe2dd"/><path d="m466 136v105l-28.125 30h-55.312l-36.563-30v-15c0-57.9 47.1-105 105-105 8.401 0 15 6.599 15 15z" fill="#38211a"/><path d="m466 241v135c0 74.7-60.3 136-135 136h-30l-45-15v-15h15c41.4 0 75-33.6 75-75v-166z" fill="#ff641a"/><path d="m286 454.563v-168.563c0-32.754-14.883-63.062-40.84-83.115h-64.16-64.16c-25.957 20.053-40.84 50.361-40.84 83.115v168.563c-17.461 6.197-30 22.881-30 42.437 0 8.291 6.709 15 15 15h60c8.276 0 15-6.724 15-15v-121c0-24.814 20.186-45 45-45s45 20.186 45 45v121c0 8.276 6.724 15 15 15h60c8.291 0 15-6.709 15-15 0-19.556-12.539-36.24-30-42.437z" fill="#ff641a"/><path d="m226 376v121c0 8.276 6.724 15 15 15h60c8.291 0 15-6.709 15-15 0-19.556-12.539-36.24-30-42.437v-168.563c0-32.754-14.883-63.062-40.84-83.115h-64.16v128.115c24.814 0 45 20.186 45 45z" fill="#f03800"/><path d="m285.707 12.056c-1.406-7.002-7.559-12.056-14.707-12.056-36.226 0-66.519 25.811-73.491 60h-16.509-16.509c-6.972-34.189-37.265-60-73.491-60-7.148 0-13.301 5.054-14.707 12.056l-30 151c-1.128 5.669 1.084 11.484 5.713 14.941l120 90c2.666 2.007 5.83 3.003 8.994 3.003s6.328-.996 8.994-3.003l120-90c4.629-3.457 6.841-9.272 5.713-14.941z" fill="#ff9100"/><path d="m309.994 177.997c4.629-3.457 6.841-9.272 5.713-14.941l-30-151c-1.406-7.002-7.559-12.056-14.707-12.056-36.226 0-66.519 25.811-73.491 60h-16.509v211c3.164 0 6.328-.996 8.994-3.003z" fill="#ff641a"/></g></svg>