<svg id="Capa_1" enable-background="new 0 0 511.993 511.993" height="512" viewBox="0 0 511.993 511.993" width="512" xmlns="http://www.w3.org/2000/svg"><g><path d="m255.996 299.993c-8.291 0-15 6.709-15 15v182c0 8.291 6.709 15 15 15s15-6.709 15-15v-182c0-8.291-6.709-15-15-15z" fill="#6aa9ff"/><path d="m270.996 496.993v-182c0-8.291-6.709-15-15-15v212c8.291 0 15-6.709 15-15z" fill="#4895ff"/><g><path d="m48.15 329.993c-19.175-33.208 21.123-80.552 70.825-110.156 38.874-23.102 107.98-50.477 134.506-13.81 28.149 38.911-28.826 91.346-71.4 115.924-38.968 22.514-111.293 47.207-133.931 8.042z" fill="#efe2dd"/></g><g><path d="m329.912 321.951c-40.542-23.409-96.382-72.963-73.41-113.142 24.309-42.517 102.527-10.736 143.21 15.159 53.95 34.38 80.317 77.974 64.131 106.025-22.542 39.038-94.753 14.556-133.931-8.042z" fill="#e1d3ce"/></g><ellipse cx="375.996" cy="209.993" fill="#efe2dd" rx="120" ry="60"/><ellipse cx="135.996" cy="209.993" fill="#fff5f5" rx="120" ry="60"/><ellipse cx="255.996" cy="224.993" fill="#6aa9ff" rx="60" ry="105"/><path d="m315.996 224.993c0-59.854-25.796-105-60-105v210c34.205 0 60-45.147 60-105z" fill="#4895ff"/><path d="m206.25 82.698c-30.015-10.811-54.404-32.476-68.672-60.996-3.706-7.412-.703-16.421 6.709-20.127 7.397-3.677 16.406-.703 20.127 6.709 10.796 21.606 29.268 38.013 52.002 46.201 7.793 2.798 11.836 11.396 9.023 19.189-2.845 7.911-11.572 11.805-19.189 9.024z" fill="#704c55"/><path d="m286.553 73.674c-2.813-7.793 1.23-16.392 9.023-19.189 22.734-8.188 41.206-24.595 52.002-46.201 3.706-7.412 12.715-10.386 20.127-6.709 7.412 3.706 10.415 12.715 6.709 20.127-14.268 28.521-38.657 50.186-68.672 60.996-7.592 2.773-16.332-1.081-19.189-9.024z" fill="#5b362a"/><circle cx="255.996" cy="89.993" fill="#7ed8f6" r="60"/><path d="m315.996 89.993c0-33.091-26.909-60-60-60v120c33.091 0 60-26.909 60-60z" fill="#6aa9ff"/></g></svg>