<svg id="Capa_1" enable-background="new 0 0 512 512" height="512" viewBox="0 0 512 512" width="512" xmlns="http://www.w3.org/2000/svg"><g><path d="m316 512h-30c-8.291 0-15-6.709-15-15v-30c0-3.984 1.582-7.793 4.395-10.605 15.952-15.952 25.034-38.163 25.576-60.736.205-8.291 6.079-15.132 15.366-14.634 8.276.205 14.824 7.075 14.634 15.366-.674 28.154-11.265 55.756-29.971 76.586v9.023h15c8.291 0 15 6.709 15 15s-6.709 15-15 15z" fill="#ff8596"/><path d="m226 512h-30c-8.291 0-15-6.709-15-15s6.709-15 15-15h15v-9.023c-18.706-20.83-29.297-48.432-29.971-76.586-.19-8.291 6.357-15.161 14.634-15.366 9.199-.63 15.146 6.343 15.366 14.634.542 22.573 9.624 44.784 25.576 60.736 2.813 2.812 4.395 6.621 4.395 10.605v30c0 8.291-6.709 15-15 15z" fill="#ffa7b3"/><path d="m415.023 250.942c-30.214-79.085-156.021-68.95-159.023-69.771-3.003.82-128.749-9.476-159.023 69.771-22.354 13.565-35.977 37.574-35.977 64.058v31c0 8.291 6.709 15 15 15h30c4.138 0 8.128-.575 12.087-1.223 30.258 37.807 82.276 61.223 137.913 61.223s107.655-23.416 137.913-61.223c3.959.648 7.949 1.223 12.087 1.223h30c8.291 0 15-6.709 15-15v-31c0-26.484-13.623-50.493-35.977-64.058z" fill="#704c55"/><path d="m393.913 359.777c3.959.648 7.949 1.223 12.087 1.223h30c8.291 0 15-6.709 15-15v-31c0-26.484-13.623-50.493-35.977-64.058-30.214-79.085-156.021-68.95-159.023-69.771v239.829c55.637 0 107.655-23.416 137.913-61.223z" fill="#5b362a"/><path d="m344.813 49.263c-5.141-28.052-29.912-49.263-58.813-49.263-10.576 0-20.903 2.856-30 8.188-9.097-5.332-19.424-8.188-30-8.188-28.916 0-53.687 21.211-58.813 49.263-10.342 11.103-16.187 25.737-16.187 41.528.381 32.651 28.711 59.209 63.164 59.209h41.836 41.836c34.453 0 62.783-26.558 63.164-60 0-15.088-5.845-29.634-16.187-40.737z" fill="#ffc9d0"/><path d="m361 90c0-15.088-5.845-29.634-16.187-40.737-5.141-28.052-29.912-49.263-58.813-49.263-10.576 0-20.903 2.856-30 8.188v141.812h41.836c34.453 0 62.783-26.558 63.164-60z" fill="#ffa7b3"/><path d="m256 120h-30v150c0 16.567 13.431 30 30 30s30-13.433 30-30v-150z" fill="#ffc9d0"/><path d="m286 270v-150h-30v180c16.569 0 30-13.433 30-30z" fill="#ffa7b3"/><path d="m297.177 94.966-30.571-30.571c-2.93-2.93-6.768-4.395-10.606-4.395s-7.676 1.465-10.605 4.395l-30.571 30.571c-10.356 10.356-14.941 24.58-12.598 39.023 2.344 14.458 11.191 26.499 24.287 33.047l22.778 11.382c2.109 1.055 4.409 1.582 6.709 1.582s4.6-.527 6.709-1.582l22.778-11.382c13.096-6.548 21.943-18.589 24.287-33.047 2.344-14.443-2.241-28.667-12.597-39.023z" fill="#ffb64c"/><path d="m285.487 167.036c13.096-6.548 21.943-18.589 24.287-33.047 2.344-14.443-2.241-28.667-12.598-39.023l-30.571-30.571c-2.929-2.93-6.767-4.395-10.605-4.395v120c2.3 0 4.6-.527 6.709-1.582z" fill="#ff9100"/></g></svg>