<svg id="Capa_1" enable-background="new 0 0 512 512" height="512" viewBox="0 0 512 512" width="512" xmlns="http://www.w3.org/2000/svg"><g><path d="m497 392c-19.556 0-36.24 12.539-42.437 30h-198.563-198.563c-6.197-17.461-22.881-30-42.437-30-8.291 0-15 6.709-15 15v90c0 8.291 6.709 15 15 15h106l30-30h105 105l30 30h106c8.291 0 15-6.709 15-15v-90c0-8.291-6.709-15-15-15z" fill="#873f2e"/><path d="m391 512h106c8.291 0 15-6.709 15-15v-90c0-8.291-6.709-15-15-15-19.556 0-36.24 12.539-42.437 30h-198.563v60h105z" fill="#752f21"/><path d="m451 76c0 41.421-33.579 75-75 75s-75-33.579-75-75 33.579-76 75-76 75 34.579 75 76z" fill="#873f2e"/><path d="m211 76c0 41.421-33.579 75-75 75s-75-33.579-75-75 33.579-76 75-76 75 34.579 75 76z" fill="#bc5f19"/><path d="m376 121c-24.814 0-45-20.186-45-45s20.186-46 45-46 45 21.186 45 46-20.186 45-45 45z" fill="#ffb64c"/><path d="m136 121c-24.814 0-45-20.186-45-45s20.186-46 45-46 45 21.186 45 46-20.186 45-45 45z" fill="#ffd396"/><path d="m375.15 212.67-21.119-31.67h-98.031-98.029l-21.121 31.67c-35.898 53.851-46.191 104.875-45.85 148.953.337 43.718 16.262 105.628 30 150.377h90l30-30h15 15l30 30h90c12.909-57.328 29.813-92.467 30-151.626.139-43.808-10.305-94.387-45.85-147.704z" fill="#bc5f19"/><path d="m301 512h90c12.909-57.328 29.813-92.467 30-151.626.139-43.808-10.305-94.387-45.85-147.704l-21.119-31.67h-98.031v301h15z" fill="#873f2e"/><path d="m256 0c-74.443 0-135 61.557-135 136v45c0 41.353 33.647 75 75 75h60 60c41.353 0 75-33.647 75-75v-45c0-74.443-60.557-136-135-136z" fill="#e68a44"/><path d="m391 181v-45c0-74.443-60.557-136-135-136v256h60c41.353 0 75-33.647 75-75z" fill="#bc5f19"/><path d="m256 331c-41.353 0-75 34.647-75 76v30c0 8.291 6.709 15 15 15 8.276 0 15 6.724 15 15v45h45 45v-45c0-8.276 6.724-15 15-15 8.291 0 15-6.709 15-15v-30c0-41.353-33.647-76-75-76z" fill="#ffd396"/><path d="m301 467c0-8.276 6.724-15 15-15 8.291 0 15-6.709 15-15v-30c0-41.353-33.647-76-75-76v181h45z" fill="#ffb64c"/><path d="m256 151c-41.353 0-75 33.647-75 75v30c0 24.814 20.186 45 45 45h15l15-30 15 30h15c24.814 0 45-20.186 45-45v-30c0-41.353-33.647-75-75-75z" fill="#ffd396"/><path d="m286 301c24.814 0 45-20.186 45-45v-30c0-41.353-33.647-75-75-75v120l15 30z" fill="#ffb64c"/><path d="m256 211c-8.284 0-15 6.716-15 15v75h15 15v-75c0-8.284-6.716-15-15-15z" fill="#704c55"/><path d="m271 226c0-8.284-6.716-15-15-15v90h15z" fill="#5b362a"/></g></svg>