<svg id="Capa_1" enable-background="new 0 0 512 512" height="512" viewBox="0 0 512 512" width="512" xmlns="http://www.w3.org/2000/svg"><g><path d="m503.709 242.582c-13.918-6.969-26.166-12.314-31.699-14.883 5.116-4.272 14.859-12.03 26.763-22.588 4.263-3.765 6.006-9.609 4.541-15.103s-5.918-9.668-11.484-10.811c-15.483-3.177-27.03-4.836-34.409-6.064 4.149-6.028 10.955-15.266 19.951-28.872 3.12-4.746 3.311-10.84.469-15.762-2.842-4.907-8.306-7.969-13.887-7.471-12.841.765-23.842 1.767-35.951 2.959 3.999-10.629 7.555-20.807 11.924-33.944 1.802-5.391.396-11.338-3.618-15.352-4.028-4.014-9.946-5.449-15.352-3.618-14.548 4.836-25.241 9.038-32.944 11.909.703-7.665 2.04-19.444 2.959-34.937.337-5.669-2.549-11.045-7.471-13.887-4.937-2.842-11.074-2.651-15.762.469-10.323 6.821-18.389 12.742-28.345 20.171-2.574-13.257-3.122-17.659-6.592-34.629-1.143-5.566-5.317-10.02-10.811-11.484-5.566-1.553-11.338.278-15.103 4.541-8.443 9.514-14.594 17.302-22.031 26.865-4.64-9.373-8.253-18.093-15.439-32.468-2.549-5.081-7.983-7.623-13.418-7.623s-10.869 2.542-13.418 7.625c-6.967 13.916-12.314 26.832-14.883 32.366-4.272-5.116-12.03-14.861-22.588-26.763-3.765-4.263-9.595-6.079-15.103-4.541-5.493 1.465-9.668 5.918-10.811 11.484-3.175 15.483-4.834 27.03-6.064 34.409-6.028-4.151-15.264-10.957-28.872-19.951-4.761-3.12-10.869-3.311-15.762-.469-4.922 2.842-7.808 8.218-7.471 13.887.767 12.841 1.769 22.842 2.959 34.951-10.629-3.999-19.807-7.557-32.944-11.924-5.405-1.831-11.353-.396-15.352 3.618-4.014 4.014-5.42 9.961-3.618 15.352 4.838 14.548 9.038 26.241 11.909 33.944-7.663-.703-20.444-2.04-35.937-2.959-5.552-.278-11.03 2.549-13.887 7.471-2.842 4.922-2.651 11.03.469 15.762 9.289 14.075 17.435 24.573 20.156 28.359-11.356 2.161-19.662 3.519-34.614 6.577-5.566 1.143-10.02 5.317-11.484 10.811s.278 11.338 4.541 15.103c9.514 8.443 17.302 14.592 26.865 22.031-9.373 4.64-17.426 8.251-31.802 15.439-5.081 2.549-8.289 7.734-8.289 13.418s3.208 10.869 8.291 13.418c13.918 6.967 26.166 12.314 31.699 14.883-5.116 4.272-14.859 12.028-26.763 22.588-4.263 3.765-6.006 9.609-4.541 15.103s5.918 9.668 11.484 10.811c15.483 3.175 27.03 4.834 34.409 6.064-4.149 6.028-10.955 15.264-19.951 28.872-3.032 4.6-3.296 10.503-.688 15.366 2.622 4.863 7.69 7.896 13.213 7.896h208.847 208.847c5.522 0 10.591-3.032 13.213-7.896 2.607-4.863 2.344-10.767-.688-15.366-6.823-10.325-12.744-18.389-20.171-28.345 13.257-2.574 17.659-3.122 34.629-6.592 5.566-1.143 10.02-5.317 11.484-10.811s-.278-11.338-4.541-15.103c-9.514-8.443-17.302-14.594-26.865-22.031 9.373-4.64 17.426-8.253 31.802-15.439 5.082-2.549 8.29-7.734 8.29-13.418s-3.208-10.869-8.291-13.418z" fill="#eeaf80"/><path d="m478.06 383.104c2.607-4.863 2.344-10.767-.688-15.366-6.823-10.325-12.744-18.389-20.171-28.345 13.257-2.574 17.659-3.122 34.629-6.592 5.566-1.143 10.02-5.317 11.484-10.811s-.278-11.338-4.541-15.103c-9.514-8.443-17.302-14.594-26.865-22.031 9.373-4.64 17.426-8.253 31.802-15.439 5.082-2.548 8.29-7.733 8.29-13.417s-3.208-10.869-8.291-13.418c-13.918-6.969-26.166-12.314-31.699-14.883 5.116-4.272 14.859-12.03 26.763-22.588 4.263-3.765 6.006-9.609 4.541-15.103s-5.918-9.668-11.484-10.811c-15.483-3.177-27.03-4.836-34.409-6.064 4.149-6.028 10.955-15.266 19.951-28.872 3.12-4.746 3.311-10.84.469-15.762-2.842-4.907-8.306-7.969-13.887-7.471-12.841.765-23.842 1.767-35.951 2.959 3.999-10.629 7.555-20.807 11.924-33.944 1.802-5.391.396-11.338-3.618-15.352-4.028-4.014-9.946-5.449-15.352-3.618-14.548 4.836-25.241 9.038-32.944 11.909.703-7.665 2.04-19.444 2.959-34.937.337-5.669-2.549-11.045-7.471-13.887-4.937-2.842-11.074-2.651-15.762.469-10.323 6.821-18.389 12.742-28.345 20.171-2.574-13.257-3.122-17.659-6.592-34.629-1.143-5.566-5.317-10.02-10.811-11.484-5.566-1.553-11.338.278-15.103 4.541-8.443 9.514-14.594 17.302-22.031 26.865-4.64-9.373-8.253-18.093-15.439-32.468-2.549-5.081-7.983-7.623-13.418-7.623v391h208.847c5.522 0 10.591-3.032 13.213-7.896z" fill="#e68a44"/><path d="m256 241c-91.126 0-165 53.725-165 120 0 25.646 11.155 50.362 30 69.864v66.136c0 8.284 6.716 15 15 15h15c16.569 0 30-13.433 30-30v-13.206c22.52 8.383 47.964 13.206 75 13.206s52.48-4.823 75-13.206v13.206c0 16.567 13.431 30 30 30h15c8.284 0 15-6.716 15-15v-66.136c18.845-19.503 30-44.218 30-69.864 0-66.275-73.874-120-165-120z" fill="#5b362a"/><path d="m331 482c0 16.567 13.431 30 30 30h15c8.284 0 15-6.716 15-15v-66.136c18.845-19.503 30-44.218 30-69.864 0-66.275-73.874-120-165-120v241c27.036 0 52.48-4.823 75-13.206z" fill="#38211a"/><path d="m256 181c-111.577 0-135 48.94-135 90 0 63.809 91.082 119.985 134.897 119.985.033 0 .07-.007.103-.007 43.661-.084 135-57.001 135-119.978 0-98.818-131.979-88.892-135-90z" fill="#704c55"/><path d="m391 271c0-98.818-131.979-88.892-135-90v209.978c43.661-.084 135-57.001 135-119.978z" fill="#5b362a"/><circle cx="256" cy="376" fill="#ffa7b3" r="30"/><path d="m286 376c0-16.538-13.462-30-30-30v60c16.538 0 30-13.462 30-30z" fill="#ff8596"/></g></svg>