<svg id="Capa_1" enable-background="new 0 0 512 512" height="512" viewBox="0 0 512 512" width="512" xmlns="http://www.w3.org/2000/svg"><g><path d="m106 241c-57.891 0-106 47.109-106 105 0 8.291 6.709 15 15 15h181z" fill="#5ab267"/><path d="m406 241-90 120h181c8.291 0 15-6.709 15-15 0-57.891-48.109-105-106-105z" fill="#288c64"/><path d="m414.232 209.096c-5.447-18.408-14.176-35.202-25.173-50.158h-133.059-133.059c-10.997 14.956-19.726 31.75-25.173 50.158-7.148 24.126-6.709 49.482 1.245 73.345 14.15 42.451 52.017 73.696 96.475 78.56h60.512 60.513c44.458-4.863 82.339-36.138 96.504-78.647 7.939-23.805 8.364-49.132 1.215-73.258z" fill="#704c55"/><path d="m413.017 282.353c7.939-23.804 8.364-49.131 1.216-73.257-5.447-18.408-14.176-35.202-25.173-50.158h-133.06v202.062h60.513c44.458-4.863 82.339-36.138 96.504-78.647z" fill="#5b362a"/><path d="m256 181h-15v120h15 15v-120z" fill="#5b362a"/><path d="m256 181h15v120h-15z" fill="#38211a"/><path d="m256 271c-26.206 0-75 0-75 60 0 49.629 33.647 90 75 90s75-40.371 75-90c0-60-48.794-60-75-60z" fill="#8cd96b"/><path d="m331 331c0-60-48.794-60-75-60v150c41.353 0 75-40.371 75-90z" fill="#5ab267"/><path d="m256 91c-53.37 0-102.513 26.396-133.059 67.938l127.493 50.993c1.787.717 3.676 1.069 5.566 1.069s3.779-.352 5.566-1.069l127.493-50.993c-30.546-41.542-79.689-67.938-133.059-67.938z" fill="#5b362a"/><path d="m389.059 158.938c-30.546-41.542-79.689-67.938-133.059-67.938v120c1.89 0 3.779-.352 5.566-1.069z" fill="#38211a"/></g></svg>