<svg id="Capa_1" enable-background="new 0 0 512 512" height="512" viewBox="0 0 512 512" width="512" xmlns="http://www.w3.org/2000/svg"><g><path d="m376 422h-75c-16.538 0-30-13.462-30-30v-15c0-8.291-6.709-15-15-15s-15 6.709-15 15v15c0 15.084 5.781 28.718 15 39.271 11.005 12.595 26.993 20.729 45 20.729h75c24.814 0 45 20.186 45 45 0 8.291 6.709 15 15 15s15-6.709 15-15c0-41.353-33.647-75-75-75z" fill="#5b362a"/><path d="m301 452h75c24.814 0 45 20.186 45 45 0 8.291 6.709 15 15 15s15-6.709 15-15c0-41.353-33.647-75-75-75h-75c-16.538 0-30-13.462-30-30v-15c0-8.291-6.709-15-15-15v69.271c11.005 12.595 26.993 20.729 45 20.729z" fill="#38211a"/><path d="m358.891 79.058c-16.685-6.49-27.891-23.789-27.891-43.067v-20.991c0-8.291-6.709-15-15-15s-15 6.709-15 15c0 24.814-20.186 45-45 45s-45-20.186-45-45c0-8.291-6.709-15-15-15s-15 6.709-15 15v20.991c0 19.277-11.206 36.577-27.891 43.066-92.402 35.977-153.109 118.807-153.109 207.943 0 8.057.513 15.996 1.45 23.833.615 5.156 3.853 9.624 8.555 11.821 4.746 2.197 10.21 1.816 14.546-1.04 19.658-12.832 43.29-19.614 66.449-19.614 40.825 0 78.428 20.713 100.562 55.415 13.812 21.65 37.91 34.585 64.438 34.585s50.624-12.935 64.438-34.585c22.134-34.702 59.737-55.415 100.562-55.415 23.159 0 46.791 6.782 66.449 19.614 4.321 2.842 9.8 3.208 14.546 1.04 4.702-2.197 7.939-6.665 8.555-11.821.938-7.837 1.45-15.776 1.45-23.833 0-89.136-60.707-171.966-153.109-207.942z" fill="#704c55"/><path d="m320.438 357.415c22.134-34.702 59.737-55.415 100.562-55.415 23.159 0 46.791 6.782 66.449 19.614 4.321 2.842 9.8 3.208 14.546 1.04 4.702-2.197 7.939-6.665 8.555-11.821.938-7.837 1.45-15.776 1.45-23.833 0-89.136-60.707-171.966-153.109-207.942-16.685-6.49-27.891-23.789-27.891-43.067v-20.991c0-8.291-6.709-15-15-15s-15 6.709-15 15c0 24.814-20.186 45-45 45v332c26.528 0 50.624-12.935 64.438-34.585z" fill="#5b362a"/><g fill="#5b362a"><path d="m316 182h-60-60c-8.291 0-15 6.709-15 15s6.709 15 15 15h60 60c8.291 0 15-6.709 15-15s-6.709-15-15-15z"/><path d="m286 242h-30-30c-8.291 0-15 6.709-15 15s6.709 15 15 15h30 30c8.291 0 15-6.709 15-15s-6.709-15-15-15z"/></g><g fill="#38211a"><path d="m331 197c0-8.291-6.709-15-15-15h-60v30h60c8.291 0 15-6.709 15-15z"/><path d="m301 257c0-8.291-6.709-15-15-15h-30v30h30c8.291 0 15-6.709 15-15z"/></g></g></svg>