<svg id="Capa_1" enable-background="new 0 0 511.925 511.925" height="512" viewBox="0 0 511.925 511.925" width="512" xmlns="http://www.w3.org/2000/svg"><g><path d="m390.962 454.488v-105.368c18.697-26.735 30-59.044 30-94.195 0-91.201-73.801-165-165-165s-165 73.799-165 165c0 35.151 11.303 67.46 30 94.195v105.369c-17.461 6.196-30 22.881-30 42.437 0 8.291 6.709 15 15 15h60c24.814 0 45-20.186 45-45v-87.501c13.5 6.901 28.801 10.501 45 10.501s31.5-3.6 45-10.501v87.501c0 24.814 20.186 45 45 45h60c8.291 0 15-6.709 15-15 0-19.557-12.539-36.241-30-42.438z" fill="#bc5f19"/><path d="m300.962 466.925c0 24.814 20.186 45 45 45h60c8.291 0 15-6.709 15-15 0-19.556-12.539-36.24-30-42.437v-105.368c18.697-26.735 30-59.044 30-94.195 0-91.201-73.801-165-165-165v300c16.199 0 31.5-3.6 45-10.501z" fill="#752f21"/><path d="m159.546 43.973c-13.052-10.942-29.634-15.762-46.611-13.521-29.634 3.896-51.973 30.645-51.973 62.241v162.231c0 8.291 6.709 15 15 15h14.253c50.039 0 90.747-40.708 90.747-90.747z" fill="#e68a44"/><path d="m398.975 30.452c-17.036-2.3-33.574 2.563-46.597 13.521l-21.416 135.205c0 50.039 40.708 90.747 90.747 90.747h14.253c8.291 0 15-6.709 15-15v-162.231c0-31.597-22.338-58.345-51.987-62.242z" fill="#bc5f19"/><path d="m255.962 0c-94.243.064-135.156 49.786-135 105.335.161 58.228 37.603 92.021 70.21 114.976 12.393 8.716 19.79 22.559 19.79 37.046v57.568c0 8.291 6.709 15 15 15h30 30c8.291 0 15-6.709 15-15v-57.568c0-14.487 7.383-28.33 19.761-37.031 32.71-23.013 70.239-56.924 70.239-115.4 0-74.62-59.436-104.972-135-104.926z" fill="#eeaf80"/><path d="m300.962 314.925v-57.568c0-14.487 7.383-28.33 19.761-37.031 32.71-23.013 70.239-56.924 70.239-115.4 0-74.618-59.436-104.97-135-104.925v329.925h30c8.292-.001 15-6.71 15-15.001z" fill="#e68a44"/><path d="m285.962 59.925h-30-30c-8.291 0-15 6.709-15 15s6.709 15 15 15h30 30c8.291 0 15-6.709 15-15s-6.708-15-15-15z" fill="#e68a44"/><path d="m300.962 74.925c0-8.291-6.709-15-15-15h-30v30h30c8.292 0 15-6.709 15-15z" fill="#bc5f19"/></g></svg>