<svg id="Capa_1" enable-background="new 0 0 512 512" height="512" viewBox="0 0 512 512" width="512" xmlns="http://www.w3.org/2000/svg"><g><path d="m197.89 196.001c-24.287 0-30.908-8.979-61.948-56.704-5.186-7.983-10.928-16.831-17.461-26.616-2.49-3.735-6.533-6.167-11.001-6.606-4.497-.337-8.921 1.143-12.085 4.321-60.879 60.864-95.395 141.796-95.395 227.885v112.72c0 7.837 6.021 14.341 13.843 14.956 7.947.588 14.778-5.002 15.981-12.642 7.062-45.244 46.214-76.972 91.176-77.604l15-29.711 15 18.545 1.582-3.164c10.752-21.504 30.292-37.163 53.613-42.964z" fill="#704c55"/><path d="m416.605 110.395c-3.164-3.179-7.485-4.644-12.085-4.321-4.468.439-8.511 2.871-11.001 6.606-6.533 9.785-12.275 18.633-17.461 26.616-31.04 47.725-37.661 56.704-61.948 56.704l-8.306 122.417c23.32 5.801 42.861 21.46 53.613 42.964l1.582 3.164 15-18.545 15 29.714c44.985.654 84.101 32.357 91.176 77.6 1.199 7.623 8.02 13.231 15.981 12.642 7.822-.615 13.843-7.119 13.843-14.956v-112.72c.001-86.088-34.515-167.02-95.394-227.885z" fill="#5b362a"/><path d="m376 256.001c-8.291 0-15 6.709-15 15v93.545l1.582 3.164c2.695 5.42 8.599 8.833 14.473 8.247l6.445-.454c2.549-.163 4.99.176 7.5.212v-104.714c0-8.291-6.709-15-15-15z" fill="#38211a"/><ellipse cx="256" cy="256.001" fill="#5b362a" rx="75" ry="120"/><path d="m331 256.001c0-66.275-33.578-120-75-120v240c41.422 0 75-53.727 75-120z" fill="#38211a"/><path d="m136 256.001c-8.291 0-15 6.709-15 15v104.711c2.51-.035 4.951-.374 7.5-.209l6.445.454c6.05.615 11.763-2.842 14.473-8.247l1.582-3.164v-93.545c0-8.291-6.709-15-15-15z" fill="#5b362a"/><path d="m346 46.001h-15c-12.744 0-25.02 4.116-35.186 11.602-11.909-7.545-25.861-11.317-39.814-11.317s-27.905 3.772-39.814 11.316c-10.166-7.485-22.442-11.601-35.186-11.601h-15c-8.291 0-15 6.709-15 15v15c0 21.694 11.836 41.426 30.322 51.958 3.516 38.101 35.669 68.042 74.678 68.042s71.162-29.941 74.678-68.042c18.486-10.533 30.322-30.264 30.322-51.958v-15c0-8.291-6.709-15-15-15z" fill="#704c55"/><path d="m330.678 127.959c18.486-10.533 30.322-30.264 30.322-51.958v-15c0-8.291-6.709-15-15-15h-15c-12.744 0-25.02 4.116-35.186 11.602-11.909-7.545-25.861-11.317-39.814-11.317v149.714c39.009.001 71.162-29.941 74.678-68.041z" fill="#5b362a"/></g></svg>