<svg id="Capa_1" enable-background="new 0 0 512.037 512.037" height="512" viewBox="0 0 512.037 512.037" width="512" xmlns="http://www.w3.org/2000/svg"><g><path d="m421.019 453.601v-32.563c0-33.091-26.909-60-60-60-6.841 0-13.564 1.157-19.995 3.413h-85.005-85.005c-6.431-2.256-13.154-3.413-19.995-3.413-33.091 0-60 26.909-60 60v32.563c-17.461 6.196-30 23.881-30 43.437 0 8.291 6.709 15 15 15h75l30-30h75 75l30 30h75c8.291 0 15-6.709 15-15 0-19.556-12.539-37.241-30-43.437z" fill="#ff9100"/><path d="m361.019 512.037h75c8.291 0 15-6.709 15-15 0-19.556-12.539-37.24-30-43.437v-32.563c0-33.091-26.909-60-60-60-6.841 0-13.564 1.157-19.995 3.413h-85.005v117.587h75z" fill="#ff641a"/><path d="m256.019 271.037h-105v241h60l15-30 15 30h15 15l15-30 15 30h60v-241z" fill="#ffb64c"/><path d="m286.019 482.037 15 30h60v-241h-105v241h15z" fill="#ff9100"/><path d="m226.019 421.037c-8.291 0-15 6.709-15 15v76h30v-76c0-8.291-6.709-15-15-15z" fill="#ff9100"/><path d="m286.019 421.037c-8.291 0-15 6.709-15 15v76h30v-76c0-8.291-6.709-15-15-15z" fill="#ff641a"/><path d="m312.635.096c-20.332.645-40.034 7.236-56.616 18.765-16.582-11.528-36.284-18.12-56.631-18.765-57.882-2.644-108.369 49.68-108.369 110.23v102.367c0 53.057 24.053 93.12 66.006 109.907l65.552 26.221c11.206 4.482 18.442 15.161 18.442 27.217 0 8.291 6.709 15 15 15s15-6.709 15-15c0-12.056 7.236-22.734 18.428-27.217l65.566-26.221c40.093-16.04 66.006-54.316 66.006-97.5v-114.76c0-60.809-50.647-112.76-108.384-110.244z" fill="#ff641a"/><path d="m271.019 376.037c0-12.056 7.236-22.734 18.428-27.217l65.566-26.221c40.093-16.04 66.006-54.316 66.006-97.5v-114.759c0-60.809-50.647-112.76-108.384-110.244-20.332.645-40.034 7.236-56.616 18.765v372.177c8.291-.001 15-6.71 15-15.001z" fill="#f03800"/><path d="m316.019 90.037c-14.224 0-24.17 6.226-30.015 11.455-8.54 7.646-19.263 11.47-29.985 11.47-10.723 0-21.445-3.823-29.985-11.47-5.845-5.229-15.791-11.455-30.015-11.455-24.814 0-45 20.186-45 45v8.789c0 17.681 6.885 35.307 19.395 47.816 6.841 6.841 10.605 15.938 10.605 25.605v8.789c0 24.814 20.186 45 45 45h15l15-30 15 30h15c24.814 0 45-20.186 45-45v-8.789c0-9.668 3.765-18.765 10.605-25.605 12.51-12.51 19.395-30.136 19.395-47.816v-8.789c0-24.814-20.186-45-45-45z" fill="#ffd396"/><path d="m286.019 271.037c24.814 0 45-20.186 45-45v-8.789c0-9.668 3.765-18.765 10.605-25.605 12.51-12.51 19.395-30.136 19.395-47.816v-8.789c0-24.814-20.186-45-45-45-14.224 0-24.17 6.226-30.015 11.455-8.54 7.646-19.263 11.47-29.985 11.47v128.075l15 30h15z" fill="#ffb64c"/><path d="m256.019 181.037c-8.291 0-15 6.709-15 15v75h15 15v-75c0-8.291-6.709-15-15-15z" fill="#ff9100"/><path d="m271.019 196.037c0-8.291-6.709-15-15-15v90h15z" fill="#ff641a"/></g></svg>