<svg id="Capa_1" enable-background="new 0 0 511.956 511.956" height="512" viewBox="0 0 511.956 511.956" width="512" xmlns="http://www.w3.org/2000/svg"><g><path d="m270.978 316c0 57.99-47.01 105-105 105s-105-47.01-105-105 47.01-106 105-106 105 48.01 105 106z" fill="#efe2dd"/><path d="m240.978 316c0-57.99 47.01-106 105-106s105 48.01 105 106-47.01 105-105 105-105-47.01-105-105z" fill="#e1d3ce"/><path d="m382.848 329.857c-17.578-48.032-34.658-100.756-40.503-153.373l-4.438-39.946c-4.6-41.55-37.381-76.538-81.929-76.538-42.328 0-76.989 32.067-81.533 72.979l-4.321 38.848c-6.914 62.256-18.12 108.256-36.343 146.884-13.638 28.931-16.465 61.113-8.159 93.091 14.388 55.371 65.59 100.155 130.181 100.155.06 0 .115-.018.176-.018 75.238-.099 135-61.851 135-135.938-.001-15.865-2.74-31.393-8.131-46.144z" fill="#fff5f5"/><path d="m390.978 376c0-15.864-2.739-31.392-8.13-46.143-17.578-48.032-34.658-100.756-40.503-153.373l-4.438-39.946c-4.6-41.55-37.381-76.538-81.929-76.538v451.938c75.238-.099 135-61.852 135-135.938z" fill="#efe2dd"/><ellipse cx="255.978" cy="60" fill="#ff641a" rx="45" ry="60"/><path d="m300.978 60c0-33.647-19.761-60-45-60v120c25.239 0 45-26.353 45-60z" fill="#f03800"/><path d="m255.978 150c-8.291 0-15 6.709-15 15v30c0 8.291 6.709 15 15 15s15-6.709 15-15v-30c0-8.291-6.709-15-15-15z" fill="#ffd396"/><path d="m270.978 195v-30c0-8.291-6.709-15-15-15v60c8.291 0 15-6.709 15-15z" fill="#ffb64c"/></g></svg>