<svg id="Capa_1" enable-background="new 0 0 512 512" height="512" viewBox="0 0 512 512" width="512" xmlns="http://www.w3.org/2000/svg"><g><path d="m406 300h-150-150c-41.353 0-75 33.647-75 75 0 33.34 15.352 65.926 42.129 85.906 11.25 8.408 17.93 21.782 17.871 36.094 0 8.291 6.709 15 15 15h45l30-30h75 75l30 30h45c7.892 0 15.031-6.599 15-15.293-.059-14.004 6.621-27.393 17.871-35.786 26.777-19.995 42.129-52.581 42.129-85.921 0-41.353-33.647-75-75-75z" fill="#5b362a"/><path d="m361 512h45c7.892 0 15.031-6.599 15-15.293-.059-14.004 6.621-27.393 17.871-35.786 26.777-19.995 42.129-52.581 42.129-85.921 0-41.353-33.647-75-75-75h-150v182h75z" fill="#38211a"/><path d="m361 150v-75c0-41.353-33.647-75-75-75h-30-30c-41.353 0-75 33.647-75 75v75c-27.231 9.463-48.867 36.973-56.528 64.805-6.226 22.544-3.926 46.025 6.445 66.079 15.132 29.297 31.26 64.438 36.064 102.935l14.019 128.181h60l30-30h15 15l30 30h60l14.033-128.299c4.57-36.606 15.557-69.17 32.651-96.797 8.716-14.077 13.316-30.307 13.316-46.904 0-38.481-24.58-77.49-60-90z" fill="#704c55"/><path d="m301 512h60l14.033-128.299c4.57-36.606 15.557-69.17 32.651-96.797 8.716-14.077 13.316-30.307 13.316-46.904 0-38.481-24.58-77.49-60-90v-75c0-41.353-33.647-75-75-75h-30v482h15z" fill="#5b362a"/><path d="m256 330c-24.853 0-45 20.147-45 45v137h45 45v-137c0-24.853-20.147-45-45-45z" fill="#5b362a"/><path d="m301 375c0-24.853-20.147-45-45-45v182h45z" fill="#38211a"/><path d="m361 150c-6.456-37.002-35.96-60-75-60-10.356 0-20.42 2.168-30 6.475-9.58-4.307-19.644-6.475-30-6.475-39.067 0-68.551 22.994-75 60-7.824 45.06 20.226 97.718 70.225 114.492l34.775.008 34.761.007c49.804-16.677 78.217-69.386 70.239-114.507z" fill="#5b362a"/><path d="m361 150c-6.456-37.002-35.96-60-75-60-10.356 0-20.42 2.168-30 6.475v168.025l34.761.007c49.804-16.677 78.217-69.386 70.239-114.507z" fill="#38211a"/><path d="m256 180c-24.814 0-45 20.186-45 45v30c0 8.291 6.709 15 15 15h30 30c8.291 0 15-6.709 15-15v-30c0-24.814-20.186-45-45-45z" fill="#80666d"/><path d="m301 255v-30c0-24.814-20.186-45-45-45v90h30c8.291 0 15-6.709 15-15z" fill="#704c55"/></g></svg>