<svg id="Capa_1" enable-background="new 0 0 512 512" height="512" viewBox="0 0 512 512" width="512" xmlns="http://www.w3.org/2000/svg"><g><path d="m151 345v122l-15 45h59.617l45.383-45v-122z" fill="#bc5f19"/><path d="m361 345h-90v122l45.383 45h59.617z" fill="#873f2e"/><path d="m421 422.264v-257.264c0-90.981-74.019-165-165-165s-165 74.019-165 165v257.264c-33.105 1.465-91 11.103-91 74.736 0 8.291 6.709 15 15 15h121c24.814 0 45-20.186 45-45v-92c0-8.291 6.709-15 15-15s15 6.709 15 15v92c0 16.948-5.865 32.426-15.383 45h60.383 60.383c-9.518-12.574-15.383-28.052-15.383-45v-92c0-8.291 6.709-15 15-15s15 6.709 15 15v92c0 24.814 20.186 45 45 45h121c8.291 0 15-6.709 15-15 0-63.633-57.895-73.271-91-74.736z" fill="#e68a44"/><path d="m301 467v-92c0-8.291 6.709-15 15-15s15 6.709 15 15v92c0 24.814 20.186 45 45 45h121c8.291 0 15-6.709 15-15 0-63.633-57.895-73.271-91-74.736v-257.264c0-90.981-74.019-165-165-165v512h60.383c-9.518-12.574-15.383-28.052-15.383-45z" fill="#bc5f19"/><path d="m196 300c-8.291 0-15-6.709-15-15v-30c0-8.291 6.709-15 15-15s15 6.709 15 15v30c0 8.291-6.709 15-15 15z" fill="#fff5f5"/><path d="m316 300c-8.291 0-15-6.709-15-15v-30c0-8.291 6.709-15 15-15s15 6.709 15 15v30c0 8.291-6.709 15-15 15z" fill="#efe2dd"/><path d="m301.894 150h-45.894-45.879c-32.593 0-59.121 26.528-59.121 59.121 0 32.651 23.948 60.85 71.821 60.85 10.664 0 22.119-1.699 33.179-6.519 11.455 4.971 23.346 6.61 34.374 6.475 47.606-.59 70.626-28.857 70.626-60.82 0-32.593-26.514-59.107-59.106-59.107z" fill="#704c55"/><path d="m361 209.106c0-32.592-26.514-59.106-59.106-59.106h-45.894v113.452c11.455 4.971 23.346 6.61 34.374 6.475 47.606-.59 70.626-28.858 70.626-60.821z" fill="#5b362a"/><circle cx="256" cy="165" fill="#5b362a" r="45"/><path d="m301 165c0-24.814-20.186-45-45-45v90c24.814 0 45-20.186 45-45z" fill="#38211a"/></g></svg>