<svg id="Capa_1" enable-background="new 0 0 512 512" height="512" viewBox="0 0 512 512" width="512" xmlns="http://www.w3.org/2000/svg"><g><path d="m452 272-31.256-13.693 28.502-16.307c-6.198-17.437-22.681-30-42.246-30s-36.048 12.563-42.246 30l28.4 17.433-31.154 12.567v30l30 15.624-30 14.376v30l30 15-30 15v60h45 45v-60l-30-13.751 30-16.249v-30l-30-12.501 30-17.499z" fill="#704c55"/><path d="m452 392-30-13.751 30-16.249v-30l-30-12.501 30-17.499v-30l-31.256-13.693 28.502-16.307c-6.198-17.437-22.681-30-42.246-30v240h45z" fill="#5b362a"/><g><g fill="#5b362a"><path d="m362 302v30h45 45v-30h-45z"/><path d="m362 362v30h45 45v-30h-45z"/><path d="m449.246 242h-42.246-42.246c-1.675 4.713-2.754 9.712-2.754 15v15h45 45v-15c0-5.288-1.078-10.287-2.754-15z"/></g></g><g fill="#38211a"><path d="m452 257c0-5.288-1.078-10.287-2.754-15h-42.246v30h45z"/><path d="m407 302h45v30h-45z"/><path d="m407 362h45v30h-45z"/></g><path d="m467 422h-181l-75-90h-30-91c-49.706 0-90 40.294-90 90s40.294 90 90 90h91 286c24.853 0 45-20.147 45-45s-20.147-45-45-45z" fill="#ffd396"/><path d="m512 467c0-24.853-20.147-45-45-45h-181l-75-90h-30v180h286c24.853 0 45-20.147 45-45z" fill="#ffb64c"/><path d="m286 332h-30c-16.538 0-30-13.462-30-30v-192.884h-45-45v222.884c0 33.164 18.23 61.871 45 77.483 13.292 7.751 28.535 12.517 45 12.517h60c24.814 0 46-20.186 46-45s-21.186-45-46-45z" fill="#ffb64c"/><path d="m286 422c24.814 0 46-20.186 46-45s-21.186-45-46-45h-30c-16.538 0-30-13.462-30-30v-192.884h-45v300.367c13.292 7.751 28.535 12.517 45 12.517z" fill="#ff9100"/><path d="m181 0c-31.45 0-90 0-90 60 0 48.325 37.793 121 90 121s90-72.675 90-121c0-60-58.55-60-90-60z" fill="#ffd396"/><path d="m271 60c0-60-58.55-60-90-60v181c52.207 0 90-72.675 90-121z" fill="#ffb64c"/></g></svg>