<svg id="Capa_1" enable-background="new 0 0 512 512" height="512" viewBox="0 0 512 512" width="512" xmlns="http://www.w3.org/2000/svg"><g><path d="m316 0c-8.291 0-15 6.709-15 15 0 8.276-6.724 15-15 15h-30-30c-8.276 0-15-6.724-15-15 0-8.291-6.709-15-15-15s-15 6.709-15 15c0 24.814 20.186 45 45 45h30 30c24.814 0 45-20.186 45-45 0-8.291-6.709-15-15-15z" fill="#5b362a"/><path d="m331 15c0-8.291-6.709-15-15-15s-15 6.709-15 15c0 8.276-6.724 15-15 15h-30v30h30c24.814 0 45-20.186 45-45z" fill="#38211a"/><path d="m361 454.563v-71.283c36.643-30.264 60-76.044 60-127.28 0-91.128-73.874-166-165-166s-165 74.872-165 166c0 51.237 23.357 97.017 60 127.28v71.283c-17.461 6.196-30 22.881-30 42.437 0 8.291 6.709 15 15 15h60c8.291 0 15-6.709 15-15v-82.372c14.323 4.056 29.377 6.372 45 6.372s30.677-2.316 45-6.372v82.372c0 8.291 6.709 15 15 15h60c8.291 0 15-6.709 15-15 0-19.556-12.539-36.24-30-42.437z" fill="#873f2e"/><path d="m301 497c0 8.291 6.709 15 15 15h60c8.291 0 15-6.709 15-15 0-19.556-12.539-36.24-30-42.437v-71.283c36.643-30.264 60-76.044 60-127.28 0-91.128-73.874-166-165-166v331c15.623 0 30.677-2.316 45-6.372z" fill="#752f21"/><path d="m406 60h-150-150c-8.284 0-15 6.716-15 15 0 24.853 20.147 45 45 45h120 120c24.853 0 45-20.147 45-45 0-8.284-6.716-15-15-15z" fill="#bc5f19"/><path d="m421 75c0-8.284-6.716-15-15-15h-150v60h120c24.853 0 45-20.147 45-45z" fill="#873f2e"/><path d="m341.384 111.971c-1.74-3.499-3.51-7.419-5.477-11.776-13.388-29.619-31.699-70.195-79.907-70.195s-66.519 40.576-79.907 70.195c-1.745 3.865-3.336 7.39-4.792 10.426-2.69 5.614-1.63 12.314 2.661 16.824 28.365 29.815 33.182 71.311 43.455 109.175h38.583 38.584c10.349-38.185 15.015-79.719 43.72-107.132 4.753-4.539 6.004-11.63 3.08-17.517z" fill="#e68a44"/><path d="m338.304 129.489c4.753-4.539 6.004-11.631 3.08-17.518-1.74-3.499-3.51-7.419-5.477-11.776-13.388-29.619-31.699-70.195-79.907-70.195v206.62h38.584c10.349-38.185 15.015-79.719 43.72-107.131z" fill="#bc5f19"/><path d="m286 226h-30-30c-16.569 0-30 13.431-30 30s13.431 30 30 30h30 30c16.569 0 30-13.431 30-30s-13.431-30-30-30z" fill="#ffd396"/><path d="m316 256c0-16.569-13.431-30-30-30h-30v60h30c16.569 0 30-13.431 30-30z" fill="#ffb64c"/></g></svg>