<svg id="Capa_1" enable-background="new 0 0 512 512" height="512" viewBox="0 0 512 512" width="512" xmlns="http://www.w3.org/2000/svg"><g><path d="m479.315 99.101c-2.578-4.981-7.705-8.101-13.315-8.101-7.998 0-15.688-.337-23.071-.952-40.21-3.442-61.611-22.5-84.272-42.686-25.592-22.793-52.061-47.362-102.657-47.362-50.903 0-78.354 25.639-102.598 47.362-22.559 20.244-43.857 39.36-84.551 42.715-7.324.601-14.926.923-22.851.923-5.61 0-10.737 3.12-13.315 8.101s-2.168 10.986 1.069 15.557l22.705 32.124c-15.571 34.146-15 73.682 1.934 107.578l4.189 8.364c2.168 4.307 6.27 7.31 11.016 8.086 4.775.791 9.609-.806 13.008-4.204 4.575-3.419 3.978-25.606 34.394-25.606h135 135c31.17 0 28.993 21.57 34.395 25.605 3.468 3.486 8.383 4.96 13.008 4.204 4.746-.776 8.848-3.779 11.016-8.086l4.189-8.379c16.934-33.882 17.505-73.418 1.934-107.563l22.705-32.124c3.236-4.57 3.647-10.576 1.068-15.556z" fill="#e68a44"/><path d="m425.395 266.605c3.468 3.486 8.383 4.96 13.008 4.204 4.746-.776 8.848-3.779 11.016-8.086l4.189-8.379c16.934-33.882 17.505-73.418 1.934-107.563l22.705-32.124c3.237-4.57 3.647-10.576 1.069-15.557s-7.706-8.1-13.316-8.1c-7.998 0-15.688-.337-23.071-.952-40.21-3.442-61.611-22.5-84.272-42.686-25.592-22.793-52.061-47.362-102.657-47.362v241h135c31.17 0 28.993 21.57 34.395 25.605z" fill="#bc5f19"/><path d="m331 331.035c7.407-.022 44.238-.035 45-.035 41.353 0 75 33.647 75 75v48.563c17.461 6.196 30 22.881 30 42.437 0 8.291-6.709 15-15 15h-90l-45-14.592z" fill="#bc5f19"/><path d="m181 331.035c-7.407-.022-44.238-.035-45-.035-41.353 0-75 33.647-75 75v48.563c-17.461 6.197-30 22.881-30 42.437 0 8.291 6.709 15 15 15h90l45-14.592z" fill="#e68a44"/><path d="m374.418 352.709c10.854-21.724 16.582-46.011 16.582-70.254v-41.455l-30-30h-105-105l-30 30v41.455c0 24.243 5.728 48.53 16.582 70.254 8.774 17.563 13.418 37.222 13.418 56.836v45.019c-17.461 6.196-30 22.881-30 42.437 0 8.291 6.709 15 15 15h75l15-30 15 30h15 15l15-30 15 30h75c8.291 0 15-6.709 15-15 0-19.556-12.539-36.24-30-42.437v-45.019c0-19.614 4.644-39.273 13.418-56.836z" fill="#eeaf80"/><path d="m286 482 15 30h75c8.291 0 15-6.709 15-15 0-19.556-12.539-36.24-30-42.437v-45.019c0-19.614 4.644-39.272 13.418-56.836 10.854-21.723 16.582-46.01 16.582-70.253v-41.455l-30-30h-105v301h15z" fill="#e68a44"/><path d="m349.999 130.434c-53.683-28.304-90.996 12.883-93.999 14.355-3.001-1.472-40.342-42.656-93.999-14.341-25.298 13.345-41.001 40.752-41.001 71.499v39.053h15c24.814 0 45 20.186 45 45s20.186 45 45 45h15l15-30 15 30h15c24.814 0 45-20.186 45-45s20.186-45 45-45h15v-39.053c0-30.747-15.703-58.154-41.001-71.513z" fill="#fff5f5"/><path d="m286 331c24.814 0 45-20.186 45-45s20.186-45 45-45h15v-39.053c0-30.747-15.703-58.154-41.001-71.514-53.682-28.304-90.996 12.884-93.999 14.355v156.212l15 30z" fill="#efe2dd"/><path d="m256 271c-8.284 0-15 6.714-15 15v45h15 15v-45c0-8.286-6.716-15-15-15z" fill="#e68a44"/><path d="m271 286c0-8.286-6.716-15-15-15v60h15z" fill="#bc5f19"/><path d="m226 361c-8.284 0-15 6.714-15 15v136h30v-136c0-8.286-6.716-15-15-15z" fill="#e68a44"/><path d="m286 361c-8.284 0-15 6.714-15 15v136h30v-136c0-8.286-6.716-15-15-15z" fill="#bc5f19"/></g></svg>