<svg id="Capa_1" enable-background="new 0 0 512.006 512.006" height="512" viewBox="0 0 512.006 512.006" width="512" xmlns="http://www.w3.org/2000/svg"><g><path d="m151.003 301.006h-106c-24.853 0-45-20.147-45-45 0-8.284 6.716-15 15-15h136z" fill="#5b362a"/><path d="m467.003 301.006h-106v-60h136c8.284 0 15 6.716 15 15 0 24.853-20.147 45-45 45z" fill="#38211a"/><path d="m411.745 1.149c-5.341-2.212-11.411-1.174-15.685 2.626-16.251 14.447-34.64 26.232-56.384 26.232h-23.674c-21.445 0-42.334 6.738-60 19.189-17.666-12.451-38.555-19.189-60-19.189h-23.672c-21.744 0-40.133-11.785-56.384-26.232-4.274-3.799-10.344-4.838-15.685-2.626-5.61 2.314-9.258 7.793-9.258 13.857v15c0 57.99 47.01 105 105 105 3.975 0 7.083 3.433 6.687 7.388l-11.067 126.663h64.38 64.38l-11.067-126.663c-.396-3.955 2.712-7.388 6.687-7.388 57.99 0 105-47.01 105-105v-15c0-6.064-3.647-11.542-9.258-13.857z" fill="#5b362a"/><path d="m309.316 142.395c-.396-3.955 2.712-7.388 6.687-7.388 57.99 0 105-47.01 105-105v-15c0-6.064-3.647-11.543-9.258-13.857-5.341-2.212-11.411-1.174-15.685 2.626-16.251 14.447-34.64 26.232-56.384 26.232h-23.674c-21.445 0-42.334 6.738-60 19.189v219.862h64.38z" fill="#38211a"/><path d="m286.003 211.006h-30-30c-74.399 0-135 60.601-135 135v15l32.701 30h132.299 132.299l32.701-30v-15c0-74.399-60.6-135-135-135z" fill="#704c55"/><path d="m421.003 361.006v-15c0-74.399-60.601-135-135-135h-30v180h132.299z" fill="#5b362a"/><path d="m328.302 361.006c-4.499 0-7.798-2.401-15.298-8.401-11.4-9-27.001-21.599-57.001-21.599s-45.601 12.599-57.001 21.599c-7.5 6-10.8 8.401-15.298 8.401h-92.701v15c0 5.099.3 10.201.901 15 6.26 56.343 47.411 102.766 101.083 116.399l7.982-25.267 25.825 29.868h14.209l15-29.795 15 29.795h13.548l26.486-29.883 7.425 25.443c53.95-13.451 95.358-60.019 101.64-116.56.601-4.799.901-9.901.901-15v-15z" fill="#fff5f5"/><path d="m284.551 512.006 26.486-29.883 7.425 25.443c53.95-13.451 95.358-60.019 101.64-116.56.601-4.799.901-9.901.901-15v-15h-92.701c-4.499 0-7.798-2.401-15.298-8.401-11.4-9-27.001-21.599-57.001-21.599v151.205l15 29.795z" fill="#efe2dd"/><path d="m185.969 421.138c-8.13 1.567-13.462 9.434-11.88 17.563 4.451 23.075 10.909 46.665 18.898 68.703 10.627 2.699 21.561 4.601 33.016 4.601h.791c-10.221-25.17-18.1-52.253-23.262-78.988-1.567-8.129-9.521-13.505-17.563-11.879z" fill="#efe2dd"/><path d="m326.037 421.124c-8.174-1.509-15.996 3.779-17.578 11.895-5.153 26.746-13.634 53.718-23.908 78.988h1.452c11.252 0 22.002-1.833 32.459-4.44 8.055-22.17 15.002-45.718 19.455-68.864 1.582-8.146-3.75-15.997-11.88-17.579z" fill="#e1d3ce"/><path d="m256.003 391.212c-8.291 0-15 6.709-15 15v105.795h15 15v-105.795c0-8.291-6.709-15-15-15z" fill="#efe2dd"/><path d="m271.003 406.212c0-8.291-6.709-15-15-15v120.795h15z" fill="#e1d3ce"/></g></svg>