<svg id="Capa_1" enable-background="new 0 0 512 512" height="512" viewBox="0 0 512 512" width="512" xmlns="http://www.w3.org/2000/svg"><g><path d="m394.113 455.999c14.458-56.25 38.262-187.757-33.223-234.134h-105.322-105.322c-71.646 46.465-48.062 176.961-33.252 234.149-15.571 7.075-26.426 22.793-26.426 40.986 0 8.291 6.709 15 15 15h105l30-30h15 15l30 30h105c8.291 0 15-6.709 15-15 0-18.208-10.869-33.926-26.455-41.001z" fill="#ffb64c"/><path d="m300.568 512h105c8.291 0 15-6.709 15-15 0-18.208-10.869-33.926-26.455-41.001 14.458-56.25 38.262-187.757-33.223-234.134h-105.322v260.135h15z" fill="#ff9100"/><path d="m360.568 9.996c-20.462-6.237-43.231-9.996-68.482-9.996h-36.519-35.654c-25.611 0-48.664 3.873-69.346 10.274l-37.141 198.184c24.925 37.332 66.88 61.542 112.142 61.542h15l15-30 15 30h15c45.306 0 87.275-23.936 112.194-61.322z" fill="#ffd396"/><path d="m285.568 270c45.306 0 87.275-23.936 112.194-61.322l-37.194-198.682c-20.462-6.237-43.231-9.996-68.482-9.996h-36.519v240l15 30z" fill="#ffb64c"/><path d="m481.432 142.207c0-46.086-42.534-108.338-120.864-132.211v155.004c0 24.351 19.38 44.061 43.537 44.852 51.797-.832 77.327-30.643 77.327-67.645z" fill="#752f21"/><path d="m150.568 165v-154.726c-77.774 24.069-120 86.017-120 131.933 0 37.196 25.675 66.593 76.811 67.61 23.994-.971 43.189-20.585 43.189-44.817z" fill="#bc5f19"/><path d="m255.568 330c-24.853 0-45 20.147-45 45v137h45 45v-137c0-24.853-20.147-45-45-45z" fill="#ffd396"/><path d="m300.568 375c0-24.853-20.147-45-45-45v182h45z" fill="#ffb64c"/><path d="m255.568 210c-8.291 0-15 6.709-15 15v45h15 15v-45c0-8.291-6.709-15-15-15z" fill="#bc5f19"/><path d="m270.568 225c0-8.291-6.709-15-15-15v60h15z" fill="#752f21"/><path d="m296.173 184.395c-5.859-5.859-15.352-5.859-21.211 0l-19.395 19.395-19.395-19.395c-5.859-5.859-15.352-5.859-21.211 0s-5.859 15.352 0 21.211l30 30c2.93 2.93 6.768 4.395 10.605 4.395s7.676-1.465 10.605-4.395l30-30c5.862-5.86 5.862-15.352.002-21.211z" fill="#bc5f19"/><path d="m296.173 205.605c5.859-5.859 5.859-15.352 0-21.211s-15.352-5.859-21.211 0l-19.395 19.395v36.211c3.838 0 7.676-1.465 10.605-4.395z" fill="#752f21"/></g></svg>