<svg id="Capa_1" enable-background="new 0 0 512 512" height="512" viewBox="0 0 512 512" width="512" xmlns="http://www.w3.org/2000/svg"><g><path d="m226 512c-8.291 0-15-6.709-15-15v-61c0-8.291 6.709-15 15-15s15 6.709 15 15v61c0 8.291-6.709 15-15 15z" fill="#704c55"/><path d="m286 512c-8.291 0-15-6.709-15-15v-61c0-8.291 6.709-15 15-15s15 6.709 15 15v61c0 8.291-6.709 15-15 15z" fill="#5b362a"/><path d="m481.604 194.81c9.346-21.519 7.232-46.538-4.765-67.31-11.997-20.786-33.105-34.263-56.411-36.929-2.666-23.306-16.143-44.414-36.929-56.411-20.728-11.968-45.791-13.11-67.31-3.765-13.959-18.852-36.195-30.395-60.189-30.395s-46.23 11.543-60.19 30.396c-21.504-9.36-46.538-8.232-67.31 3.765s-34.248 33.105-36.929 56.41c-23.291 2.666-44.414 16.143-56.411 36.929-11.997 20.771-14.11 45.791-4.765 67.31-18.852 13.96-30.395 36.196-30.395 60.19 0 41.353 34.647 75 76 75h180 180c41.353 0 76-33.647 76-75 0-23.994-11.543-46.23-30.396-60.19z" fill="#8cd96b"/><path d="m512 255c0-23.994-11.543-46.23-30.396-60.19 9.346-21.519 7.232-46.538-4.765-67.31-11.997-20.786-33.105-34.263-56.411-36.929-2.666-23.306-16.143-44.414-36.929-56.411-20.728-11.968-45.791-13.11-67.31-3.765-13.959-18.852-36.195-30.395-60.189-30.395v330h180c41.353 0 76-33.647 76-75z" fill="#5ab267"/><path d="m334.838 303.604c-15.146-23.789-30.806-48.398-33.457-94.863-.469-8.291-7.734-14.678-15.82-14.121l-29.561.028-29.648.029c-7.925-.659-15.278 6.021-15.674 14.297-2.432 52.383-18.149 74.561-33.354 95.991-12.935 18.238-26.324 37.105-26.324 70.035 0 44.854 42.202 76 105 76 63.779 0 105-30.443 105-76 0-30.293-12.7-50.259-26.162-71.396z" fill="#6aa9ff"/><path d="m361 375c0-30.293-12.7-50.259-26.162-71.396-15.146-23.789-30.806-48.398-33.457-94.863-.469-8.291-7.734-14.678-15.82-14.121l-29.561.028v256.352c63.779 0 105-30.443 105-76z" fill="#4895ff"/><circle cx="346" cy="99.115" fill="#ffb64c" r="15"/><circle cx="166" cy="99.115" fill="#ffd396" r="15"/><circle cx="411.885" cy="165" fill="#ffb64c" r="15"/><circle cx="100.115" cy="165" fill="#ffd396" r="15"/><circle cx="76" cy="255" fill="#ffd396" r="15"/><circle cx="436" cy="255" fill="#ffb64c" r="15"/><circle cx="256" cy="69" fill="#ffd396" r="15"/><path d="m271 69c0-8.284-6.716-15-15-15v30c8.284 0 15-6.715 15-15z" fill="#ffb64c"/><circle cx="256" cy="176.426" fill="#7ed8f6" r="60"/><path d="m316 176.426c0-33.091-26.909-60-60-60v120c33.091 0 60-26.909 60-60z" fill="#6aa9ff"/></g></svg>