<svg id="Capa_1" enable-background="new 0 0 512.007 512.007" height="512" viewBox="0 0 512.007 512.007" width="512" xmlns="http://www.w3.org/2000/svg"><g><path d="m393.232 3.185c-3.662-2.856-8.438-3.867-12.861-2.725l-90.249 22.559 66.328 89.634c25.854-12.437 42.554-38.979 42.554-67.646v-30c-.001-4.615-2.125-8.98-5.772-11.822z" fill="#ff641a"/><path d="m57.636.461c-4.468-1.099-9.214-.117-12.861 2.725s-5.771 7.207-5.771 11.821v30c0 28.667 16.699 55.21 42.554 67.646l66.328-89.634z" fill="#ff9100"/><path d="m369.003 450.007h-39.199c-8.291 0-15-6.709-15-15s6.709-15 15-15h39.199c8.276 0 15-6.724 15-15v-120c0-24.814 20.186-45 45-45s44 20.186 44 45c0 8.291-6.709 15-15 15s-15-6.709-15-15c0-8.276-5.724-15-14-15s-15 6.724-15 15v120c0 24.814-20.185 45-45 45z" fill="#f03800"/><path d="m354.003 185.236h-135-135v105.493l28.418 30.987-28.418 2.558v26.464l28.418 30.978-28.418 2.567v8.302c0 28.77 10.869 56.982 30 78.384v26.038c0 8.291 6.709 15 15 15h75l15-30 15 30h75c8.291 0 15-6.709 15-15v-26.038c19.131-21.401 30-49.614 30-78.384v-8.306l-28.418-2.563 28.418-30.981v-26.455l-28.418-2.563 28.418-30.981z" fill="#ff9100"/><path d="m309.003 512.007c8.291 0 15-6.709 15-15v-26.038c19.131-21.401 30-49.614 30-78.384v-8.306l-28.418-2.563 28.418-30.981v-26.455l-28.418-2.563 28.418-30.981v-105.5h-135v296.771l15 30z" fill="#ff641a"/><path d="m234.003.922-15 29.084-15-29.084c-84.315 9.144-150 93.49-150 164.084 0 55.327 39.683 101.118 90.337 104.268l74.663.007 74.546.007c50.728-3.149 90.454-48.955 90.454-104.282 0-70.594-65.685-154.94-150-164.084z" fill="#ffb64c"/><path d="m384.003 165.007c0-70.594-65.685-154.94-150-164.084l-15 29.084v239.275l74.546.007c50.728-3.15 90.454-48.955 90.454-104.282z" fill="#ff9100"/><path d="m265.585 351.715c3.688 7.354 12.64 10.426 20.127 6.709l68.291-34.146v-33.545l-81.709 40.854c-7.412 3.708-10.415 12.716-6.709 20.128z" fill="#5b362a"/><path d="m172.421 411.715c3.706-7.412.703-16.421-6.709-20.127l-81.709-40.851v33.545l68.291 34.142c7.515 3.732 16.478.61 20.127-6.709z" fill="#704c55"/><path d="m272.294 391.589c-7.412 3.706-10.415 12.715-6.709 20.127 3.688 7.354 12.64 10.426 20.127 6.709l68.291-34.146v-33.545z" fill="#5b362a"/><path d="m172.421 351.715c3.706-7.412.703-16.421-6.709-20.127l-81.709-40.86v33.545l68.291 34.151c7.48 3.714 16.436.652 20.127-6.709z" fill="#704c55"/><path d="m174.033 195.724-36.416-17.139c-7.5-3.53-10.708-12.466-7.192-19.966 3.545-7.5 12.437-10.708 19.966-7.192l36.416 17.139c7.5 3.53 10.708 12.466 7.192 19.966-3.561 7.548-12.518 10.679-19.966 7.192z" fill="#704c55"/><path d="m243.847 188.59c-3.516-7.5-.293-16.436 7.192-19.966l36.577-17.197c7.471-3.545 16.436-.322 19.966 7.192 3.516 7.5.293 16.436-7.192 19.966l-36.577 17.197c-7.446 3.486-16.404.359-19.966-7.192z" fill="#5b362a"/><path d="m219.003 360.007c-8.291 0-15 6.709-15 15v137h15 15v-137c0-8.292-6.709-15-15-15z" fill="#704c55"/><path d="m234.003 375.007c0-8.291-6.709-15-15-15v152h15z" fill="#5b362a"/><path d="m289.726 77.965c-20.83-21.255-45.776-31.882-70.723-31.882s-49.893 10.627-70.723 31.882c-5.786 5.933-5.698 15.425.22 21.226 5.947 5.801 15.425 5.698 21.226-.22 8.76-8.95 26.807-23.965 49.277-23.965s40.518 15.015 49.277 23.965c5.823 5.909 15.289 6.008 21.226.22 5.918-5.801 6.006-15.293.22-21.226z" fill="#704c55"/><path d="m289.506 99.191c5.918-5.801 6.006-15.293.22-21.226-20.83-21.255-45.776-31.882-70.723-31.882v28.923c22.471 0 40.518 15.015 49.277 23.965 5.823 5.909 15.29 6.008 21.226.22z" fill="#5b362a"/><path d="m219.003.007c-5.065 0-10.054.379-15 .916v149.084h15 15v-149.085c-4.945-.536-9.935-.915-15-.915z" fill="#704c55"/><path d="m234.003.922c-4.946-.536-9.935-.916-15-.916v150h15z" fill="#5b362a"/><path d="m236.508 132.472-5.859-6.914c-2.842-3.516-7.119-5.552-11.646-5.552s-8.804 2.036-11.646 5.552l-5.259 6.152c-40.43 46.714-84.727 105.044-68.262 141.826 7.646 17.095 25.796 26.001 55.166 26.47 5.079 0 10.084-.551 15-1.591l15-28.409 15 28.372c5.164 1.071 10.527 1.613 16.143 1.613h.103c28.037-.454 46.128-9.302 53.789-26.309 16.231-36.063-25.019-91.61-67.529-141.21z" fill="#ffd396"/><path d="m250.146 299.992h.103c28.037-.454 46.128-9.302 53.789-26.309 16.23-36.064-25.02-91.611-67.529-141.211l-5.859-6.914c-2.842-3.516-7.119-5.552-11.646-5.552v150l15 28.372c5.163 1.072 10.526 1.614 16.142 1.614z" fill="#ffb64c"/><path d="m219.003 240.007c-8.284 0-15 6.714-15 15v43.409c5.096-1.078 10.096-2.684 14.971-4.869.009.004.02.005.029.009 4.832 2.141 9.816 3.748 15 4.823v-43.372c0-8.286-6.716-15-15-15z" fill="#704c55"/><path d="m234.003 255.007c0-8.286-6.716-15-15-15v53.549c4.832 2.141 9.816 3.748 15 4.823z" fill="#5b362a"/></g></svg>