<svg id="Capa_1" enable-background="new 0 0 512 512" height="512" viewBox="0 0 512 512" width="512" xmlns="http://www.w3.org/2000/svg"><g><path d="m266.605 4.395c-2.929-2.93-6.767-4.395-10.605-4.395s-7.676 1.465-10.605 4.395c-21.856 21.855-34.395 53.119-34.395 84.027v51.753h45 45v-51.753c0-30.908-12.539-62.172-34.395-84.027z" fill="#ffb64c"/><path d="m301 88.422c0-30.908-12.539-62.172-34.395-84.027-2.929-2.93-6.767-4.395-10.605-4.395v140.175h45z" fill="#ff9100"/><path d="m479.931 261.566c2.432-6.094.63-13.081-4.482-17.212-5.083-4.146-12.305-4.482-17.769-.835l-90 60v54.961l90 60c5.516 3.667 12.703 3.283 17.769-.835 5.112-4.131 6.914-11.118 4.482-17.212-17.915-44.78-17.915-94.086 0-138.867z" fill="#ff9100"/><path d="m54.32 243.52c-5.449-3.633-12.656-3.296-17.769.835s-6.914 11.118-4.482 17.212c17.915 44.78 17.915 94.087 0 138.867-2.432 6.094-.63 13.081 4.482 17.212 5.098 4.144 12.287 4.479 17.769.835l90-60v-54.961z" fill="#ffb64c"/><path d="m256 121c-93.252 0-135 90.41-135 180 0 90.635 44.841 211 135 211 75.703 0 135-93.241 135-211 0-89.59-41.748-180-135-180z" fill="#7ed8f6"/><path d="m391 301c0-89.59-41.748-180-135-180v391c75.703 0 135-93.241 135-211z" fill="#6aa9ff"/><path d="m166 271c-24.814 0-45-20.186-45-45s20.186-45 45-45 45 20.186 45 45-20.186 45-45 45z" fill="#fff5f5"/><path d="m346 271c-24.814 0-45-20.186-45-45s20.186-45 45-45 45 20.186 45 45-20.186 45-45 45z" fill="#efe2dd"/><circle cx="166" cy="226" fill="#704c55" r="15"/><circle cx="346" cy="226" fill="#5b362a" r="15"/><ellipse cx="256" cy="361" fill="#6aa9ff" rx="75" ry="60"/><path d="m331 361c0-33.091-33.647-60-75-60v120c41.353 0 75-26.909 75-60z" fill="#4895ff"/></g></svg>