<svg id="Capa_1" enable-background="new 0 0 512 512" height="512" viewBox="0 0 512 512" width="512" xmlns="http://www.w3.org/2000/svg"><g><path d="m136 0c-24.814 0-45 20.186-45 45s20.186 45 45 45h30l35.42-51.694c-13.272-23.628-38.335-38.306-65.42-38.306z" fill="#ffb64c"/><path d="m376 0c-27.085 0-52.148 14.678-65.42 38.306l35.42 51.694h30c24.814 0 45-20.186 45-45s-20.186-45-45-45z" fill="#ff9100"/><g><path d="m136 30c-8.276 0-15 6.724-15 15s6.724 15 15 15h42.437c-.996-2.827-2.285-5.566-3.867-8.188-8.233-13.653-22.647-21.812-38.57-21.812z" fill="#704c55"/></g><g><path d="m333.681 60h42.393c8.262 0 14.985-6.724 14.985-14.985s-6.724-14.985-14.985-14.985c-14.971 0-28.931 7.427-37.31 19.863-2.154 3.178-3.838 6.577-5.083 10.107z" fill="#5b362a"/></g><path d="m126.991 280.005-35.949 65.169c-.002.279-.042.548-.042.826 0 15.291 2.243 30.029 6.136 44.081l69.025 30.919 19.131-100.005z" fill="#ff9100"/><path d="m385.009 280.005-58.301 40.99 49.131 100.005 39.025-30.919c6.808-24.571 5.88-41.807 6.097-44.857z" fill="#ff641a"/><path d="m406 452h-150-150c-24.853 0-45 20.147-45 45 0 8.284 6.716 15 15 15h180 180c8.284 0 15-6.716 15-15 0-24.853-20.147-45-45-45z" fill="#ff9100"/><path d="m451 497c0-24.853-20.147-45-45-45h-150v60h180c8.284 0 15-6.716 15-15z" fill="#ff641a"/><path d="m365.863 301.85c7.881-2.695 16.392 1.333 19.146 9.155 3.955 11.191 5.977 22.881 6.006 34.731.029 12.671 16.67 19.585 25.356 10.884 2.972-3.001 4.587-7.04 4.59-11.396-.422-90.768-74.097-165.224-164.961-165.224-90.848 0-164.506 74.429-164.958 165.174-.011 4.367 1.6 8.43 4.587 11.446 8.672 8.701 25.313 1.787 25.356-10.884.029-11.851 2.051-23.54 6.006-34.731 2.754-7.822 11.279-11.865 19.146-9.155 7.808 2.769 11.909 11.338 9.155 19.146-2.842 8.013-4.277 16.362-4.307 24.829-.073 24.902-20.171 45.175-44.824 45.175-3.071 0-6.086-.322-9.025-.919 19.305 69.69 83.029 121.919 158.864 121.919s139.559-52.229 158.864-121.919c-2.939.597-5.955.919-9.025.919-24.653 0-44.751-20.273-44.824-45.176-.029-8.467-1.465-16.816-4.307-24.829-2.754-7.807 1.348-16.377 9.155-19.145z" fill="#ffb64c"/><path d="m414.864 390.081c-2.939.597-5.955.919-9.025.919-24.653 0-44.751-20.273-44.824-45.176-.029-8.467-1.465-16.816-4.307-24.829-2.754-7.808 1.348-16.377 9.155-19.146 7.881-2.695 16.392 1.333 19.146 9.155 3.955 11.191 5.977 22.881 6.006 34.731.029 12.671 16.67 19.585 25.356 10.884 2.972-3.001 4.587-7.04 4.59-11.396-.422-90.767-74.097-165.223-164.961-165.223v332c75.835 0 139.559-52.229 158.864-121.919z" fill="#ff9100"/><g><path d="m346 105.747h-.073l.073.015z"/><path d="m360.531 94.98c-5.068-53.217-50.01-94.98-104.531-94.98-54.067 0-98.73 41.089-104.268 94.893-35.8 12.319-60.732 46.42-60.732 85.107 0 49.629 40.371 90 90 90 12.305 0 24.374-2.637 35.977-7.837 12.7 5.2 25.862 7.8 39.023 7.8s26.323-2.6 39.023-7.8c11.601 5.2 23.672 7.837 35.977 7.837 49.629 0 90-40.371 90-90 0-38.599-24.814-72.627-60.469-85.02zm-14.531 10.782-.073-.015h.073z" fill="#ffd396"/><path d="m331 270c49.629 0 90-40.371 90-90 0-38.599-24.814-72.627-60.469-85.02-5.068-53.217-50.01-94.98-104.531-94.98v269.963c13.162 0 26.323-2.6 39.023-7.8 11.601 5.2 23.672 7.837 35.977 7.837zm30.059-161.982h-.308zm-15.059-2.271v.015l-.073-.015z" fill="#ffb64c"/></g><circle cx="256" cy="165" fill="#704c55" r="45"/><path d="m301 165c0-24.814-20.186-45-45-45v90c24.814 0 45-20.186 45-45z" fill="#5b362a"/></g></svg>