<svg id="Capa_1" enable-background="new 0 0 512.001 512.001" height="512" viewBox="0 0 512.001 512.001" width="512" xmlns="http://www.w3.org/2000/svg"><g><path d="m501.234 148.936c-6.401-1.948-13.257.674-16.846 6.27-20.962 32.563-32.168 70.444-32.388 109.57-.103 20.317-16.542 36.226-36.142 36.226h-39.858c-37.251 0-57.583-31.289-57.583-47.358 0-8.027 4.585-12.642 12.583-12.642 24.814 0 45-20.186 45-45 0-13.022-5.522-25.005-15.527-33.75 10.166-16.465 15.527-35.01 15.527-53.672 0-45.674-30.952-86.313-75.278-97.387l-41.089-11.056c-1.185-.308-2.411 0-3.633 0s-2.448-.308-3.633 0l-41.089 11.056c-44.326 11.074-75.278 51.713-75.278 97.387 0 18.662 5.361 37.207 15.527 53.672-10.005 8.745-15.527 20.728-15.527 33.75 0 24.814 20.186 45 45 45 7.998 0 12.583 4.614 12.583 12.642 0 16.069-20.332 47.358-57.583 47.358h-39.858c-19.6 0-36.039-15.908-36.142-36.226-.22-39.126-11.426-77.007-32.388-109.57-3.589-5.596-10.444-8.218-16.846-6.27-6.387 1.875-10.767 7.734-10.767 14.385v107.681c0 49.629 41.371 90 91 90h30c24.814 0 45 20.186 45 45 0 22.969-17.183 43.202-39.976 45.722-33.047 3.662-55.415 14.15-74.795 35.098-4.043 4.365-5.112 10.723-2.725 16.187s7.778 8.994 13.74 8.994h72.554c49.629 0 91.201-40.371 91.201-90v-61c0-16.569 13.431-30 30-30s30 13.431 30 30v61c0 49.629 41.572 90 91.201 90h72.554c5.962 0 11.353-3.53 13.74-8.994s1.318-11.821-2.725-16.187c-19.38-20.947-41.748-31.436-74.795-35.098-22.793-2.52-39.976-22.753-39.976-45.722 0-24.814 20.186-45 45-45h31c49.629 0 90-40.371 90-90v-107.681c.004-6.651-4.376-12.51-10.763-14.385z" fill="#ff641a"/><path d="m286.001 361.001v61c0 49.629 41.572 90 91.201 90h72.554c5.962 0 11.353-3.53 13.74-8.994s1.318-11.821-2.725-16.187c-19.38-20.947-41.748-31.436-74.795-35.098-22.793-2.52-39.976-22.753-39.976-45.722 0-24.814 20.186-45 45-45h31c49.629 0 90-40.371 90-90v-107.679c0-6.65-4.38-12.51-10.767-14.385-6.401-1.948-13.257.674-16.846 6.27-20.962 32.563-32.168 70.444-32.388 109.57-.103 20.317-16.542 36.226-36.142 36.226h-39.858c-37.251 0-57.583-31.289-57.583-47.358 0-8.027 4.585-12.642 12.583-12.642 24.814 0 45-20.186 45-45 0-13.022-5.522-25.005-15.527-33.75 10.166-16.465 15.527-35.01 15.527-53.672 0-45.674-30.952-86.313-75.278-97.387l-41.088-11.056c-1.185-.308-2.411 0-3.633 0v330.865c16.57-.001 30.001 13.43 30.001 29.999z" fill="#f03800"/><circle cx="196.001" cy="196.001" fill="#704c55" r="15"/><circle cx="316.001" cy="196.001" fill="#5b362a" r="15"/></g></svg>